<svg width="440" height="192" viewBox="0 0 440 192" version="1.1" xmlns="http://www.w3.org/2000/svg" xmlns:xlink="http://www.w3.org/1999/xlink" xml:space="preserve" style="fill-rule:evenodd;clip-rule:evenodd;stroke-linecap:square;stroke-miterlimit:1.41421;"><g><rect x="-2.846" y="-61.807" width="446.076" height="254.533" style="fill:#fff;"/></g><g><g><path d="M14.645,151.716l2.423,-1.401l2.183,-1.128l4.171,-0.44l4.171,-0.723l4.171,-0.378l4.171,-2.783l4.171,-2.123l4.171,-1.462l4.171,-0.944l4.171,-1.95l4.171,-1.808l4.171,-0.173l4.171,-1.667l4.171,-2.311l4.171,-2.548l4.171,-2.123l4.171,-2.484l4.171,-1.651l4.171,-2.721l4.171,-3.365l4.171,-4.293l4.171,-2.437l4.171,-2.642l4.171,-3.742l4.171,-0.142l4.171,0.425l4.171,-4.214l4.171,-2.548l4.171,-0.959l4.171,-4.434l4.171,0.849l4.171,2.563l4.171,0.613l4.171,0.299l4.171,-2.925l4.171,-2.5l4.171,-2.642l4.171,-2.28l4.171,-3.349l4.171,-2.076l4.171,-0.472l4.171,-1.415l4.171,0.834l4.171,0.031l4.171,-1.635l4.171,-2.076l4.171,-2.264l4.17,-1.714l4.171,0.125l4.171,0.519l4.171,-2.437l4.171,-2.547l4.171,-1.085l4.171,-6.605l4.171,-6.148l4.171,-4.497l4.171,-4.356l4.171,-3.082l4.171,-3.412l4.171,0.676l4.171,-6.715l4.171,-4.564l4.171,-3.321l4.171,-3.029l8.148,-3.376l0,158.054l-271.258,0l-0.097,-24.872Z" style="fill:#c6c6c6;fill-rule:nonzero;"/></g><g><path d="M286.004,18.528l146.026,-18.439l-0.048,176.365l-145.921,0l-0.057,-157.926Z" style="fill:#f8f8f8;"/></g><g><path id="carbon-budget-future-budget" d="M286,18.5L327.8,13.3V176.5H286Z" style="fill:#7cd3f5;"/></g><g><path id="carbon-budget-future-overdrawn" d="M327.8,13.3L432,0.1V176.5H327.8Z" style="fill:#ffb400;"/></g><path d="M14.5,5.619l0,170.655" style="fill:none;stroke-width:1px;stroke:#979797;"/><path d="M15.006,176.5l416.528,0" style="fill:none;stroke-width:1px;stroke:#979797;"/><g><text x="-0.146px" y="9.056px" style="font-family:hcm;font-size:11px;fill:#afafaf;">40</text><text x="-0.146px" y="52.027px" style="font-family:hcm;font-size:11px;fill:#afafaf;">30</text><text x="-0.146px" y="94.824px" style="font-family:hcm;font-size:11px;fill:#afafaf;">20</text><text x="-0.146px" y="137.781px" style="font-family:hcm;font-size:11px;fill:#afafaf;">10</text></g><g><text x="3.465px" y="191.135px" style="font-family:hcm;font-size:11px;fill:#afafaf;">1950</text><text x="86.509px" y="191.135px" style="font-family:hcm;font-size:11px;fill:#afafaf;">1970</text><text x="129.03px" y="191.135px" style="font-family:hcm;font-size:11px;fill:#afafaf;">1980</text><text x="170.552px" y="191.135px" style="font-family:hcm;font-size:11px;fill:#afafaf;">1990</text><text x="44.987px" y="191.135px" style="font-family:hcm;font-size:11px;fill:#afafaf;">1960</text><text x="212.074px" y="191.135px" style="font-family:hcm;font-size:11px;fill:#afafaf;">2000</text><text x="254.595px" y="191.135px" style="font-family:hcm;font-size:11px;fill:#afafaf;">2010</text><text x="296.117px" y="191.135px" style="font-family:hcm;font-size:11px;fill:#afafaf;">2020</text><text x="337.639px" y="191.135px" style="font-family:hcm;font-size:11px;fill:#afafaf;">2030</text><text x="379.16px" y="191.135px" style="font-family:hcm;font-size:11px;fill:#afafaf;">2040</text><text x="418.349px" y="191.135px" style="font-family:hcm;font-size:11px;fill:#afafaf;">2050</text></g><g><path d="M12.8,176.574l1.638,0" style="fill:none;stroke-width:1px;stroke:#979797;"/><path d="M12.8,5.532l1.3,0" style="fill:none;stroke-width:0.9px;stroke:#979797;"/><path d="M12.8,133.814l1.638,0" style="fill:none;stroke-width:1px;stroke:#979797;"/><path d="M12.8,91.053l1.638,0" style="fill:none;stroke-width:1px;stroke:#979797;"/><path d="M12.8,48.293l1.638,0" style="fill:none;stroke-width:1px;stroke:#979797;"/></g><g><path d="M98.242,177.157l0,3.004" style="fill:none;stroke-width:1px;stroke:#979797;"/><path d="M181.706,177.157l0,3.004" style="fill:none;stroke-width:1px;stroke:#979797;"/><path d="M139.974,177.157l0,3.004" style="fill:none;stroke-width:1px;stroke:#979797;"/><path d="M56.509,177.139l0,3.004" style="fill:none;stroke-width:1px;stroke:#979797;"/><path d="M35.643,177.139l0,1.282" style="fill:none;stroke-width:1px;stroke:#979797;"/><path d="M77.375,177.139l0,1.282" style="fill:none;stroke-width:1px;stroke:#979797;"/><path d="M119.108,177.139l0,1.282" style="fill:none;stroke-width:1px;stroke:#979797;"/><path d="M160.84,177.139l0,1.282" style="fill:none;stroke-width:1px;stroke:#979797;"/><path d="M202.572,177.139l0,1.282" style="fill:none;stroke-width:1px;stroke:#979797;"/><path d="M244.305,177.139l0,1.282" style="fill:none;stroke-width:1px;stroke:#979797;"/><path d="M286.037,177.139l0,1.282" style="fill:none;stroke-width:1px;stroke:#979797;"/><path d="M327.77,177.139l0,1.282" style="fill:none;stroke-width:1px;stroke:#979797;"/><path d="M369.502,177.139l0,1.282" style="fill:none;stroke-width:1px;stroke:#979797;"/><path d="M411.234,177.139l0,1.282" style="fill:none;stroke-width:1px;stroke:#979797;"/><path d="M14.5,176.8l0,3.004" style="fill:none;stroke-width:1px;stroke:#979797;"/><path d="M223.439,177.157l0,3.004" style="fill:none;stroke-width:1px;stroke:#979797;"/><path d="M265.171,177.157l0,3.004" style="fill:none;stroke-width:1px;stroke:#979797;"/><path d="M306.903,177.157l0,3.004" style="fill:none;stroke-width:1px;stroke:#979797;"/><path d="M348.636,177.157l0,3.004" style="fill:none;stroke-width:1px;stroke:#979797;"/><path d="M390.368,177.157l0,3.004" style="fill:none;stroke-width:1px;stroke:#979797;"/><path d="M431.5,177.157l0,3.004" style="fill:none;stroke-width:1px;stroke:#979797;"/></g><g><g transform="matrix(1,2.66454e-15,-2.66454e-15,1,26.0919,13.6301)"><text x="0px" y="0px" style="font-family:hcm;font-size:11px;fill:#34bdea;">The blue area is the “carbon budget”, </text><text x="0px" y="11px" style="font-family:hcm;font-size:11px;fill:#34bdea;">the maximum we can emit before 2050 </text><text x="0px" y="22px" style="font-family:hcm;font-size:11px;fill:#34bdea;">to stay under 2°C with 80% probability.</text></g><g transform="matrix(1,2.66454e-15,-2.66454e-15,1,26.0919,52.7499)"><text x="0px" y="0px" style="font-family:hcm;font-size:11px;fill:#eca601;">The orange area is emissions beyond </text><text x="0px" y="11px" style="font-family:hcm;font-size:11px;fill:#eca601;">the safe budget.  Drag the dot to </text><text x="0px" y="22px" style="font-family:hcm;font-size:11px;fill:#eca601;">adjust projected emissions. </text><text x="0px" y="33px" style="font-family:hcm;font-size:11px;fill:#eca601;">Try to make it all blue.</text></g></g></g></svg>