<svg class="jacobson" width="440px" height="300px" viewBox="0 0 440 300" version="1.1" xmlns="http://www.w3.org/2000/svg" xmlns:xlink="http://www.w3.org/1999/xlink" xmlns:sketch="http://www.bohemiancoding.com/sketch/ns">
    <!-- Generator: Sketch 3.3.3 (12072) - http://www.bohemiancoding.com/sketch -->
    <title>jacobson</title>
    <desc>Created with Sketch.</desc>
    <defs>
        <rect id="jacobson-path-1" x="0.153032289" y="0" width="411.034193" height="265.416552"></rect>
    </defs>
    <g stroke="none" stroke-width="1" fill="none" fill-rule="evenodd" sketch:type="MSPage">
        <g sketch:type="MSArtboardGroup">
            <g sketch:type="MSLayerGroup" transform="translate(-1.000000, -15.000000)">
                <mask id="jacobson-mask-2" sketch:name="Mask" fill="white">
                    <use xlink:href="#jacobson-path-1"></use>
                </mask>
                <use sketch:type="MSShapeGroup" xlink:href="#jacobson-path-1"></use>
                <path d="M1.12224324,43.5822192 C24.3006053,42.3084279 417.471464,24.0003256 417.471464,24.0003256 L416.652527,269.847087 L-0.529752113,269.656472 L-0.663888488,46.4706897" fill="#F6F6F6" sketch:type="MSShapeGroup" mask="url(#jacobson-mask-2)"></path>
                <path d="M1.6466862,44.204491 C10.9010875,44.204491 54.1091368,46.93462 88.0375712,52.4937155 C121.966006,58.052811 150.868864,65.3758502 170.52539,69.4130525 C190.181916,73.4502548 248.869101,79.75769 271.290047,80.2649877 C293.710992,80.7722855 387.852539,82.4373919 412.03642,82.4373919 C436.220301,82.4373919 429.129227,276.818144 429.129227,276.818144 L-2.47523382,274.427894 L-1.09554539,44.7299425" fill="#D8D8D8" sketch:type="MSShapeGroup" mask="url(#jacobson-mask-2)"></path>
                <path d="M1.0687904,44.9629162 C17.7117863,46.1782119 60.768554,51.3722144 103.671014,63.5554279 C146.573475,75.7386415 172.22277,92.6489016 207.07604,97.3678798 C241.929309,102.086858 262.468311,105.272849 308.788728,106.421581 C355.109144,107.570313 411.658216,108.086687 411.658216,108.086687 L411.658216,264.591832 L1.47338638,264.591832" stroke="#FF0000" fill="#000000" sketch:type="MSShapeGroup" mask="url(#jacobson-mask-2)"></path>
                <path d="M1.38950744,260.269951 C9.95406453,260.269951 40.9526781,255.792015 52.7042348,251.705394 C64.4557915,247.618773 93.7913157,231.981296 103.828347,223.94219 C113.865379,215.903085 142.906408,181.810257 154.866734,169.582668 C166.827059,157.355078 191.068427,139.50183 206.631272,132.783917 C222.194117,126.066004 270.530613,115.032531 309.413016,112.926691 C348.29542,110.82085 391.587208,108.416016 411.50293,108.416016 C431.418651,108.416016 415.029779,266.132618 415.029779,266.132618 L-0.198949626,271.492022" fill="#B4EEFF" sketch:type="MSShapeGroup" mask="url(#jacobson-mask-2)"></path>
                <path d="M0.903389152,260.694548 C10.1083718,260.694548 34.9730197,259.729371 53.2992759,253.995798 C71.625532,248.262224 84.7487087,246.5124 104.454653,235.371013 C124.160598,224.229625 139.682093,205.912446 155.310493,193.146294 C170.938893,180.380142 188.65498,168.512603 207.056877,164.110307 C225.458774,159.708012 276.0887,154.271959 308.894625,153.008253 C341.70055,151.744547 397.123077,150.480841 412.129206,150.480841 C427.135335,150.480841 431.670758,246.059564 431.670758,246.059564 L419.104297,289.259545 L-2.42480661,275.646216 L-3.25685555,260.325421" fill="#4990E2" sketch:type="MSShapeGroup" mask="url(#jacobson-mask-2)"></path>
                <path d="M0.673441081,261.162513 C9.87842372,261.162513 39.3460673,258.523153 53.0118408,255.910015 C66.6776143,253.296877 86.0759528,250.377141 103.810194,242.4046 C121.544434,234.432058 133.411973,223.572054 153.959044,212.785675 C174.506114,201.999295 185.647502,195.100853 206.212726,191.014232 C226.77795,186.927611 272.026284,183.931226 309.933425,182.46682 C347.840566,181.002414 404.288784,179.65399 412.020283,179.65399 C419.751783,179.65399 432.32732,179.271752 432.32732,179.271752 L440.815228,272.67807 L136.020069,287.68319 L-4.67285156,276.007274 L-2.94924958,260.178174" fill="#FFE377" sketch:type="MSShapeGroup" mask="url(#jacobson-mask-2)"></path>
                <path d="M0.997183759,262.771141 C15.046204,262.771141 33.9775867,260.105558 52.9533452,259.873593 C71.9291038,259.641628 85.451664,258.493905 104.410277,257.15355 C123.368891,255.813194 133.821442,254.856086 154.243453,253.066929 C174.665464,251.277771 186.982814,250.00398 206.849117,249.430118 C226.71542,248.856257 379.889075,246.176555 411.604763,246.626366 C443.320452,247.076176 416.715056,273.623076 416.715056,273.623076 C416.715056,273.623076 366.375591,281.346507 361.973296,281.346507 C357.571001,281.346507 8.06203567,277.518074 8.06203567,277.518074 L-3.74700801,266.149764" fill="#FFFD89" sketch:type="MSShapeGroup" mask="url(#jacobson-mask-2)"></path>
                <path d="M1.36328529,262.879055 C7.30562754,262.879055 48.6982974,262.11357 52.7536535,262.11357 C56.8090096,262.11357 86.2181576,261.788819 104.028039,261.788819 C121.837921,261.788819 143.841329,261.597195 154.185966,261.597195 C164.530604,261.597195 197.194324,261.396495 206.332743,261.396495 C215.471161,261.396495 298.715388,260.88012 308.4196,260.88012 C318.123812,260.88012 406.143496,260.372823 411.414148,260.372823 C416.6848,260.372823 420.998343,269.053362 420.998343,269.053362 C420.998343,269.053362 406.452111,278.306755 404.154647,278.306755 C401.857184,278.306755 3.9229704,269.818847 3.9229704,269.818847 L-2.38446484,263.742369" fill="#1AF7FF" sketch:type="MSShapeGroup" mask="url(#jacobson-mask-2)"></path>
                <path d="M1.11215779,263.182627 C5.59009391,263.182627 48.0911538,263.373242 52.6941494,263.373242 C57.2971449,263.373242 98.410448,263.440814 103.711356,263.440814 C109.012264,263.440814 148.838665,263.431737 154.282786,263.431737 C159.726908,263.431737 200.575972,263.231037 206.919715,263.231037 C213.263458,263.231037 295.29239,263.42266 309.273837,263.42266 C323.255285,263.42266 408.202944,263.297601 411.025859,263.297601 C413.848774,263.297601 418.57582,263.42266 418.57582,263.42266 L415.896118,272.935249 L4.08232037,269.231875 L-2.49237907,265.270313" fill="#AD590E" sketch:type="MSShapeGroup" mask="url(#jacobson-mask-2)"></path>
            </g>
            <g sketch:type="MSLayerGroup" transform="translate(415.000000, 109.000000)" fill="#6a6a6a">
                <text sketch:type="MSTextLayer">
                    <tspan x="0.35097188" y="11.9626568">31%</tspan>
                </text>
                <text sketch:type="MSTextLayer">
                    <tspan x="0.35097188" y="46.0433814">19%</tspan>
                </text>
                <text sketch:type="MSTextLayer">
                    <tspan x="0.35097188" y="94.5825952">38%</tspan>
                </text>
                <text sketch:type="MSTextLayer">
                    <tspan x="6.54746726" y="132.794317">7%</tspan>
                </text>
                <text sketch:type="MSTextLayer">
                    <tspan x="6.54746726" y="153.449301">3%</tspan>
                </text>
                <text sketch:type="MSTextLayer">
                    <tspan x="6.54746726" y="166.875041">1%</tspan>
                </text>
            </g>
            <g sketch:type="MSLayerGroup" transform="translate(36.000000, -1.000000)" sketch:alignment="right">
                <text sketch:type="MSTextLayer" fill="#B5B5B5">
                    <tspan x="2.30696759" y="121.962657">fossil fuels</tspan>
                    <tspan x="8.18096759" y="134.962657">&amp; nuclear</tspan>
                </text>
                <text sketch:type="MSTextLayer" fill="#B5B5B5">
                    <tspan x="274.766981" y="44.5064646">production efficiency</tspan>
                </text>
                <text sketch:type="MSTextLayer" transform="translate(178.447727, 11.075280) rotate(-3.000000) translate(-178.447727, -11.075280) " fill="#CECECE">
                    <tspan x="99.9917799" y="15.5752804">business-as-usual projected demand</tspan>
                </text>
                <text sketch:type="MSTextLayer" fill="rgba(0,0,0,0.5)">
                    <tspan x="307.733981" y="121.962657">onshore wind</tspan>
                </text>
                <text sketch:type="MSTextLayer" fill="rgba(0,0,0,0.5)">
                    <tspan x="306.721981" y="156.043381">offshore wind</tspan>
                </text>
                <text sketch:type="MSTextLayer" fill="rgba(0,0,0,0.5)">
                    <tspan x="290.672981" y="204.582595">utility-scale solar</tspan>
                </text>
                <text sketch:type="MSTextLayer" fill="rgba(0,0,0,0.5)">
                    <tspan x="311.044981" y="242.794317">rooftop solar</tspan>
                </text>
                <text sketch:type="MSTextLayer" fill="rgba(0,0,0,0.5)">
                    <tspan x="309.559981" y="263.449301">hydroelectric</tspan>
                </text>
                <text sketch:type="MSTextLayer" fill="rgba(0,0,0,0.5)">
                    <tspan x="317.303981" y="276.875041">geothermal</tspan>
                </text>
                <text sketch:type="MSTextLayer" fill="#9F9F9F">
                    <tspan x="265.207981" y="83.7509353">consumption efficiency</tspan>
                </text>
            </g>
            <g sketch:type="MSLayerGroup" transform="translate(0.000000, 250.000000)" fill="#D2D2D2">
                <text sketch:type="MSTextLayer">
                    <tspan x="0.153032289" y="11.416552">2010</tspan>
                </text>
                <text sketch:type="MSTextLayer" sketch:alignment="middle">
                    <tspan x="90.835206" y="11.416552">2020</tspan>
                </text>
                <text sketch:type="MSTextLayer" sketch:alignment="middle">
                    <tspan x="193.07738" y="11.416552">2030</tspan>
                </text>
                <text sketch:type="MSTextLayer" sketch:alignment="middle">
                    <tspan x="296.352303" y="11.416552">2040</tspan>
                </text>
            </g>
        </g>
    </g>
</svg>