<svg width="440" height="108" viewBox="0 0 440 108" version="1.1" xmlns="http://www.w3.org/2000/svg" xmlns:xlink="http://www.w3.org/1999/xlink" xml:space="preserve" style="fill-rule:evenodd;clip-rule:evenodd;stroke-linecap:square;stroke-miterlimit:1.41421;"><g><g><text x="267.728px" y="60.106px" style="font-family:hcm;font-size:11px;fill:#ebb433;">U.S. peak power price</text><text x="267.728px" y="86.66px" style="font-family:hcm;font-size:11px;fill:#ebb433;">U.S. baseload power price</text><path d="M265.288,56.66l-237.742,0" style="fill:none;stroke-width:1px;stroke:#fcedce;"/><path d="M265.288,82.66l-237.787,0" style="fill:none;stroke-width:1px;stroke:#fceecf;"/></g><path d="M26.5,11.344l0,85.09" style="fill:none;stroke-width:1px;stroke:#979797;"/><path d="M26.632,96.66l223.854,0" style="fill:none;stroke-width:1px;stroke:#979797;"/><g><text x="0.48px" y="15.028px" style="font-family:hcm;font-size:11px;fill:#afafaf;">$400</text><text x="5.98px" y="36.227px" style="font-family:hcm;font-size:11px;fill:#afafaf;">300</text><text x="5.98px" y="57.425px" style="font-family:hcm;font-size:11px;fill:#afafaf;">200</text><text x="5.98px" y="78.624px" style="font-family:hcm;font-size:11px;fill:#afafaf;">100</text></g><g><text x="33.217px" y="107.41px" style="font-family:hcm;font-size:11px;fill:#afafaf;">2009</text><text x="108.927px" y="107.41px" style="font-family:hcm;font-size:11px;fill:#afafaf;">2011</text><text x="146.782px" y="107.41px" style="font-family:hcm;font-size:11px;fill:#afafaf;">2012</text><text x="184.637px" y="107.41px" style="font-family:hcm;font-size:11px;fill:#afafaf;">2013</text><text x="71.072px" y="107.41px" style="font-family:hcm;font-size:11px;fill:#afafaf;">2010</text><text x="222.492px" y="107.743px" style="font-family:hcm;font-size:11px;fill:#afafaf;">2014</text></g><g><path d="M24,32.594l1.638,0" style="fill:none;stroke-width:1px;stroke:#979797;"/><path d="M24,53.974l1.638,0" style="fill:none;stroke-width:1px;stroke:#979797;"/><path d="M24,11.31l1.638,0" style="fill:none;stroke-width:1px;stroke:#979797;"/><path d="M24,75.354l1.638,0" style="fill:none;stroke-width:1px;stroke:#979797;"/></g><g><path d="M63.809,97.517l0,3.004" style="fill:none;stroke-width:1px;stroke:#979797;"/><path d="M176.026,97.517l0,3.004" style="fill:none;stroke-width:1px;stroke:#979797;"/><path d="M213.432,97.517l0,3.004" style="fill:none;stroke-width:1px;stroke:#979797;"/><path d="M101.215,97.517l0,3.004" style="fill:none;stroke-width:1px;stroke:#979797;"/><path d="M138.62,97.517l0,3.004" style="fill:none;stroke-width:1px;stroke:#979797;"/><path d="M26.5,97.16l0,3.004" style="fill:none;stroke-width:1px;stroke:#979797;"/><path d="M250.5,97.517l0,3.004" style="fill:none;stroke-width:1px;stroke:#979797;"/></g><path d="M233.622,81.09l-39.416,-4.27l-36.967,-5.411l-38.676,-6.972l-37.66,-19.729l-39.438,-25.09l1.61,-2.532l39.331,25.023l37.142,19.458l38.175,6.881l36.862,5.395l39.36,4.264l-0.323,2.983Z" style="fill:#7cd3f5;"/><g><g><path d="M43.414,26.889l0,-15.039l-0.049,0" style="fill:none;stroke-width:1px;stroke:#7cd3f5;"/><circle cx="43.492" cy="19.36" r="4.054" style="fill:#7cd3f5;"/></g><g><path d="M81.513,47.949l0,-8.931" style="fill:none;stroke-width:1px;stroke:#7cd3f5;"/><circle cx="81.591" cy="43.348" r="4.032" style="fill:#7cd3f5;"/></g><g><path d="M118.945,65.736l0,-5.281" style="fill:none;stroke-width:1px;stroke:#7cd3f5;"/><circle cx="119.023" cy="62.95" r="3.996" style="fill:#7cd3f5;"/></g><g><path d="M157.205,74.884l0,-9.95" style="fill:none;stroke-width:1px;stroke:#7cd3f5;"/><circle cx="157.283" cy="69.956" r="3.979" style="fill:#7cd3f5;"/></g><g><circle cx="194.276" cy="75.231" r="3.986" style="fill:#7cd3f5;"/><circle cx="232.214" cy="79.309" r="4.038" style="fill:#7cd3f5;"/></g></g><g><text x="32.067px" y="9.37px" style="font-family:hcm;font-size:11px;fill:#7cd3f5;">$360</text><text x="222.021px" y="72.358px" style="font-family:hcm;font-size:11px;fill:#7cd3f5;">$80</text></g></g></svg>