<svg width="440" height="190" viewBox="0 0 440 190" version="1.1" xmlns="http://www.w3.org/2000/svg" xmlns:xlink="http://www.w3.org/1999/xlink" xml:space="preserve" style="fill-rule:evenodd;clip-rule:evenodd;stroke-linecap:round;stroke-linejoin:round;stroke-miterlimit:10;"><g><g><path d="M0.001,103.014l19.207,0.215l10.978,-2.515c0,0 13.554,-2.342 15.908,-2.89c2.354,-0.548 12.449,-1.643 15.572,-1.014c3.122,0.629 6.538,1.48 6.538,1.48l17.475,-4.115l21.621,-9.721l17.404,-7.785l25.402,-12.216l9.65,-1.714l14.92,-10.643l9.652,-8.484l10.664,-5.454c0,0 9.629,-9.244 14.221,-11.982c4.592,-2.739 14.535,-7.099 20.608,-8.183c6.074,-1.083 24.945,-5.665 30.085,-6.598c5.141,-0.932 19.129,-3.963 26.053,-4.196c6.923,-0.233 16.634,-1.013 16.634,-1.013c0,0 13.229,-5.281 13.229,-5.596c0,-0.314 11.33,1.783 15.234,4.044c3.904,2.262 8.85,5.249 11.202,8.697c2.353,3.448 10.21,23.812 11.771,25.84c1.561,2.028 14.954,6.934 14.954,6.934l25.037,0.304l17.263,-1.014l-0.265,133.252l-410.79,-0.034l-0.227,-75.599Z" style="fill:#7cd3f5;"/><path d="M-0.058,106.293c0,0 9.618,0.851 14.292,0.851c4.674,0 18.508,-2.879 24.501,-4.126c5.992,-1.247 12.974,-3.823 15.409,-3.041c2.435,0.781 11.456,2.646 13.646,2.331c2.191,-0.314 21.145,-4.684 24.117,-5.151c2.971,-0.466 20.981,-6.424 24.804,-7.823c3.823,-1.4 15.397,-3.741 19.139,-4.289c3.741,-0.548 8.23,-2.252 11.586,-1.318c3.356,0.934 13.973,3.893 18.799,5.292c4.825,1.399 29.478,6.539 30.491,6.539c1.014,0 13.382,-6.143 13.382,-6.143l15.327,1.237l27.965,-4.978l22.088,-1.957l14.416,-3.812l12.834,1.562l13.311,-7.087l13.381,3.578l13.022,-4.895l12.135,2.109l17.566,-5.362l22.169,-8.567l12.672,-1.247l4.439,0.04l-0.338,118.504l-410.893,0.223l-0.26,-72.47Z" style="fill:#4f4f4f;"/><path d="M-0.045,116.383c0,0 22.18,-0.616 26.551,-1.317c4.37,-0.7 16.484,-3.508 22.089,-4.44c5.605,-0.933 14.536,1.783 20.689,1.783c6.153,0 17.79,-3.03 22.23,-4.51c4.439,-1.481 8.312,-0.083 13.066,-0.782c4.754,-0.699 37.078,-8.705 41.682,-9.72c4.604,-1.015 11.729,-1.096 15.561,0.081c3.833,1.177 35.54,3.507 35.54,3.507l12.752,-6.223l14.395,2.027c0,0 13.44,-6.082 15.874,-6.549c2.435,-0.467 37.476,-2.098 41.146,-3.275c3.671,-1.177 18.884,-0.851 22.17,-1.48c3.286,-0.629 12.48,-5.526 12.48,-5.526l12.752,4.127l12.742,-5.048c0,0 14.221,5.291 19.594,4.825c5.373,-0.465 26.961,-4.439 30.714,-4.976c3.753,-0.537 19.161,2.376 19.161,2.376l0.011,96.993l-408.468,0.002l-2.876,0l0.145,-61.875Z" style="fill:#838383;"/></g><g><path d="M411.243,156.7l-410.656,0" style="fill:none;stroke-width:1px;stroke:#000;stroke-opacity:0.0392157;"/><path d="M411.243,135.529l-410.656,0" style="fill:none;stroke-width:1px;stroke:#000;stroke-opacity:0.0392157;"/><path d="M411.243,114.357l-410.656,0" style="fill:none;stroke-width:1px;stroke:#000;stroke-opacity:0.0392157;"/><path d="M411.243,93.186l-322.132,0" style="fill:none;stroke-width:1px;stroke:#000;stroke-opacity:0.0392157;"/><path d="M411.243,72.014l-275.624,0" style="fill:none;stroke-width:1px;stroke:#000;stroke-opacity:0.0392157;"/><path d="M411.243,50.843l-234.672,0" style="fill:none;stroke-width:1px;stroke:#000;stroke-opacity:0.0392157;"/><path d="M349.427,29.671l-144.804,0" style="fill:none;stroke-width:1px;stroke:#000;stroke-opacity:0.0392157;"/><path d="M335.813,8.5l-57.715,0" style="fill:none;stroke-width:1px;stroke:#000;stroke-opacity:0.0392157;"/></g><path d="M411.5,8.435l0,170.065" style="fill:none;stroke-width:0.98px;stroke-linecap:square;stroke-linejoin:miter;stroke-miterlimit:1.41421;stroke:#aaa;"/><path d="M0,178.5l410.461,0" style="fill:none;stroke-width:1.32px;stroke-linecap:square;stroke-linejoin:miter;stroke-miterlimit:1.41421;stroke:#666;"/><g><text x="419.353px" y="139.118px" style="font-family:hcm;font-size:10px;fill:#afafaf;">$50B</text><text x="414.353px" y="96.763px" style="font-family:hcm;font-size:10px;fill:#afafaf;">$100B</text><text x="414.353px" y="54.409px" style="font-family:hcm;font-size:10px;fill:#afafaf;">$150B</text><text x="414.353px" y="12.054px" style="font-family:hcm;font-size:10px;fill:#afafaf;">$200B</text></g><g><text x="14.709px" y="188.893px" style="font-family:hcm;font-size:11px;fill:#cdcdcd;">1939</text><text x="66.222px" y="188.893px" style="font-family:hcm;font-size:11px;fill:#cdcdcd;">1940</text><text x="117.736px" y="188.893px" style="font-family:hcm;font-size:11px;fill:#cdcdcd;">1941</text><text x="169.25px" y="188.893px" style="font-family:hcm;font-size:11px;fill:#cdcdcd;">1942</text><text x="220.763px" y="188.893px" style="font-family:hcm;font-size:11px;fill:#cdcdcd;">1943</text><text x="272.277px" y="188.893px" style="font-family:hcm;font-size:11px;fill:#cdcdcd;">1944</text><text x="323.791px" y="188.893px" style="font-family:hcm;font-size:11px;fill:#cdcdcd;">1945</text><text x="375.305px" y="188.893px" style="font-family:hcm;font-size:11px;fill:#cdcdcd;">1946</text></g><g><text x="190.325px" y="64.877px" style="font-family:hcm;font-size:13px;fill:#fff;">war</text><path d="M120.874,106.308l-11.925,-7.064" style="fill:none;stroke-width:1px;stroke:#fff;stroke-opacity:0.498039;"/><text x="68.437px" y="149.023px" style="font-family:hcm;font-size:11px;fill:#fff;fill-opacity:0.501961;">other civilian goods and services</text><text x="123.705px" y="110.327px" style="font-family:hcm;font-size:11px;fill:#fff;fill-opacity:0.501961;">restricted industries</text></g><g><path d="M411.5,135.514l1.638,0" style="fill:none;stroke-width:1px;stroke-linecap:square;stroke-linejoin:miter;stroke-miterlimit:1.41421;stroke:#ababab;"/><path d="M411.5,156.683l1.638,0" style="fill:none;stroke-width:1px;stroke-linecap:square;stroke-linejoin:miter;stroke-miterlimit:1.41421;stroke:#ababab;"/><path d="M411.5,93.176l1.638,0" style="fill:none;stroke-width:1px;stroke-linecap:square;stroke-linejoin:miter;stroke-miterlimit:1.41421;stroke:#ababab;"/><path d="M411.5,72.007l1.638,0" style="fill:none;stroke-width:1px;stroke-linecap:square;stroke-linejoin:miter;stroke-miterlimit:1.41421;stroke:#ababab;"/><path d="M411.5,50.838l1.638,0" style="fill:none;stroke-width:1px;stroke-linecap:square;stroke-linejoin:miter;stroke-miterlimit:1.41421;stroke:#ababab;"/><path d="M411.5,29.669l1.638,0" style="fill:none;stroke-width:1px;stroke-linecap:square;stroke-linejoin:miter;stroke-miterlimit:1.41421;stroke:#ababab;"/><path d="M411.5,114.345l1.638,0" style="fill:none;stroke-width:1px;stroke-linecap:square;stroke-linejoin:miter;stroke-miterlimit:1.41421;stroke:#ababab;"/><path d="M411.5,8.5l1.638,0" style="fill:none;stroke-width:1px;stroke-linecap:square;stroke-linejoin:miter;stroke-miterlimit:1.41421;stroke:#ababab;"/></g><g><path d="M51.813,175.309l-0.001,2.378" style="fill:none;stroke-width:0.9px;stroke-linecap:square;stroke-linejoin:miter;stroke-miterlimit:1.41421;stroke:#616161;"/><path d="M103.125,175.309l0,2.378" style="fill:none;stroke-width:0.9px;stroke-linecap:square;stroke-linejoin:miter;stroke-miterlimit:1.41421;stroke:#616161;"/><path d="M154.438,175.309l-0.001,2.378" style="fill:none;stroke-width:0.9px;stroke-linecap:square;stroke-linejoin:miter;stroke-miterlimit:1.41421;stroke:#616161;"/><path d="M257.063,175.309l0,2.378" style="fill:none;stroke-width:0.9px;stroke-linecap:square;stroke-linejoin:miter;stroke-miterlimit:1.41421;stroke:#616161;"/><path d="M205.75,175.309l0,2.378" style="fill:none;stroke-width:0.9px;stroke-linecap:square;stroke-linejoin:miter;stroke-miterlimit:1.41421;stroke:#616161;"/><path d="M308.375,175.309l0,2.378" style="fill:none;stroke-width:0.9px;stroke-linecap:square;stroke-linejoin:miter;stroke-miterlimit:1.41421;stroke:#616161;"/><path d="M359.688,175.309l0,2.378" style="fill:none;stroke-width:0.9px;stroke-linecap:square;stroke-linejoin:miter;stroke-miterlimit:1.41421;stroke:#616161;"/><path d="M0.5,175.295l0,2.378" style="fill:none;stroke-width:0.9px;stroke-linecap:square;stroke-linejoin:miter;stroke-miterlimit:1.41421;stroke:#616161;"/><path d="M411.5,175.309l0,2.378" style="fill:none;stroke-width:0.9px;stroke-linecap:square;stroke-linejoin:miter;stroke-miterlimit:1.41421;stroke:#616161;"/></g></g></svg>