<svg width="440" height="182" viewBox="0 0 440 182" version="1.1" xmlns="http://www.w3.org/2000/svg" xmlns:xlink="http://www.w3.org/1999/xlink" xml:space="preserve" style="fill-rule:evenodd;clip-rule:evenodd;stroke-linecap:square;stroke-miterlimit:1.41421;"><g><path d="M94.5,5.541l0,160.733" style="fill:none;stroke-width:1px;stroke:#979797;"/><path d="M94.826,166.5l336.581,0" style="fill:none;stroke-width:1px;stroke:#979797;"/><g><text x="71.424px" y="138.358px" style="font-family:hcm;font-size:11px;fill:#afafaf;fill-opacity:0.8;">0.01</text><text x="74.174px" y="8.994px" style="font-family:hcm;font-size:11px;fill:#afafaf;">100</text><text x="79.674px" y="41.335px" style="font-family:hcm;font-size:11px;fill:#afafaf;">10</text><text x="85.174px" y="73.676px" style="font-family:hcm;font-size:11px;fill:#afafaf;">1</text><text x="76.924px" y="106.017px" style="font-family:hcm;font-size:11px;fill:#afafaf;">0.1</text></g><g><text x="83.286px" y="181.135px" style="font-family:hcm;font-size:11px;fill:#afafaf;">2015</text><text x="131.421px" y="181.135px" style="font-family:hcm;font-size:11px;fill:#afafaf;">2020</text><text x="179.557px" y="181.135px" style="font-family:hcm;font-size:11px;fill:#afafaf;">2025</text><text x="227.692px" y="181.135px" style="font-family:hcm;font-size:11px;fill:#afafaf;">2030</text><text x="275.828px" y="181.135px" style="font-family:hcm;font-size:11px;fill:#afafaf;">2035</text><text x="323.963px" y="181.135px" style="font-family:hcm;font-size:11px;fill:#afafaf;">2040</text><text x="372.099px" y="181.135px" style="font-family:hcm;font-size:11px;fill:#afafaf;">2045</text><text x="418.418px" y="181.135px" style="font-family:hcm;font-size:11px;fill:#afafaf;">2050</text></g><g><path d="M92.992,134.354l1.4,0" style="fill:none;stroke-width:0.93px;stroke:#979797;"/><path d="M92.992,5.5l1.4,0" style="fill:none;stroke-width:0.93px;stroke:#979797;"/><path d="M92.992,102.106l1.4,0" style="fill:none;stroke-width:0.93px;stroke:#979797;"/><path d="M92.992,69.859l1.4,0" style="fill:none;stroke-width:0.93px;stroke:#979797;"/><path d="M92.992,37.611l1.4,0" style="fill:none;stroke-width:0.93px;stroke:#979797;"/></g><g><path d="M191.034,167.157l0,3.004" style="fill:none;stroke-width:1px;stroke:#979797;"/><path d="M287.181,167.157l0,3.004" style="fill:none;stroke-width:1px;stroke:#979797;"/><path d="M239.108,167.157l0,3.004" style="fill:none;stroke-width:1px;stroke:#979797;"/><path d="M142.961,167.139l0,3.004" style="fill:none;stroke-width:1px;stroke:#979797;"/><path d="M104.502,167.139l0,1.282" style="fill:none;stroke-width:1px;stroke:#979797;"/><path d="M114.117,167.139l0,1.282" style="fill:none;stroke-width:1px;stroke:#979797;"/><path d="M123.731,167.139l0,1.282" style="fill:none;stroke-width:1px;stroke:#979797;"/><path d="M133.346,167.139l0,1.282" style="fill:none;stroke-width:1px;stroke:#979797;"/><path d="M152.575,167.139l0,1.282" style="fill:none;stroke-width:1px;stroke:#979797;"/><path d="M162.19,167.139l0,1.282" style="fill:none;stroke-width:1px;stroke:#979797;"/><path d="M171.805,167.139l0,1.282" style="fill:none;stroke-width:1px;stroke:#979797;"/><path d="M181.42,167.139l0,1.282" style="fill:none;stroke-width:1px;stroke:#979797;"/><path d="M200.649,167.139l0,1.282" style="fill:none;stroke-width:1px;stroke:#979797;"/><path d="M210.264,167.139l0,1.282" style="fill:none;stroke-width:1px;stroke:#979797;"/><path d="M219.878,167.139l0,1.282" style="fill:none;stroke-width:1px;stroke:#979797;"/><path d="M229.493,167.139l0,1.282" style="fill:none;stroke-width:1px;stroke:#979797;"/><path d="M248.722,167.139l0,1.282" style="fill:none;stroke-width:1px;stroke:#979797;"/><path d="M258.337,167.139l0,1.282" style="fill:none;stroke-width:1px;stroke:#979797;"/><path d="M267.952,167.139l0,1.282" style="fill:none;stroke-width:1px;stroke:#979797;"/><path d="M277.566,167.139l0,1.282" style="fill:none;stroke-width:1px;stroke:#979797;"/><path d="M296.796,167.139l0,1.282" style="fill:none;stroke-width:1px;stroke:#979797;"/><path d="M306.411,167.139l0,1.282" style="fill:none;stroke-width:1px;stroke:#979797;"/><path d="M316.025,167.139l0,1.282" style="fill:none;stroke-width:1px;stroke:#979797;"/><path d="M325.64,167.139l0,1.282" style="fill:none;stroke-width:1px;stroke:#979797;"/><path d="M344.869,167.139l0,1.282" style="fill:none;stroke-width:1px;stroke:#979797;"/><path d="M354.484,167.139l0,1.282" style="fill:none;stroke-width:1px;stroke:#979797;"/><path d="M364.099,167.139l0,1.282" style="fill:none;stroke-width:1px;stroke:#979797;"/><path d="M373.713,167.139l0,1.282" style="fill:none;stroke-width:1px;stroke:#979797;"/><path d="M392.943,167.139l0,1.282" style="fill:none;stroke-width:1px;stroke:#979797;"/><path d="M402.558,167.139l0,1.282" style="fill:none;stroke-width:1px;stroke:#979797;"/><path d="M412.172,167.139l0,1.282" style="fill:none;stroke-width:1px;stroke:#979797;"/><path d="M421.787,167.139l0,1.282" style="fill:none;stroke-width:1px;stroke:#979797;"/><path d="M94.5,166.8l0,3.004" style="fill:none;stroke-width:1px;stroke:#979797;"/><path d="M335.255,167.157l0,3.004" style="fill:none;stroke-width:1px;stroke:#979797;"/><path d="M383.328,167.157l0,3.004" style="fill:none;stroke-width:1px;stroke:#979797;"/><path d="M431.5,167.157l0,3.004" style="fill:none;stroke-width:1px;stroke:#979797;"/></g><g><g transform="matrix(0.886298,-0.463114,0.463114,0.886298,167.888,68.8584)"><text x="0px" y="0px" style="font-family:hcm;font-size:11px;fill:#7cd3f5;">required battery </text><text x="0px" y="11px" style="font-family:hcm;font-size:11px;fill:#7cd3f5;">growth for 2°C</text></g><g transform="matrix(0.958026,-0.286681,0.286681,0.958026,253.867,60.4336)"><text x="0px" y="0px" style="font-family:hcm;font-size:11px;fill:#2b6e9b;">required growth  </text><text x="0px" y="11px" style="font-family:hcm;font-size:11px;fill:#2b6e9b;">for 4°C (really bad!)</text></g><g transform="matrix(0.993874,-0.110518,0.110518,0.993874,344.488,79.6227)"><text x="0px" y="0px" style="font-family:hcm;font-size:11px;fill:#eb0000;">actual battery </text><text x="0px" y="11px" style="font-family:hcm;font-size:11px;fill:#eb0000;">growth anticipated</text></g></g><g><g transform="matrix(1,-3.55271e-15,3.55271e-15,1,0.663658,17.4032)"><text x="0px" y="0px" style="font-family:hcm;font-size:11px;fill:#ebb433;">storage required </text><text x="6.397px" y="11px" style="font-family:hcm;font-size:11px;fill:#ebb433;">for 100% solar </text><text x="3.937px" y="22px" style="font-family:hcm;font-size:11px;fill:#ebb433;">&amp; wind globally</text></g><g transform="matrix(1,-3.55271e-15,3.55271e-15,1,-10.7784,122.362)"><text x="19.529px" y="0px" style="font-family:hcm;font-size:11px;fill:#ebb433;">total battery </text><text x="17.682px" y="11px" style="font-family:hcm;font-size:11px;fill:#ebb433;">power today</text></g><path d="M73.848,25l363.968,0" style="fill:none;stroke-width:1px;stroke-linecap:round;stroke-linejoin:round;stroke:#f4c046;"/><path d="M64.031,125l91.25,0" style="fill:none;stroke-width:1px;stroke-linecap:round;stroke-linejoin:round;stroke:#f4c046;"/></g><g><path d="M95.224,124.986l340.823,-102.871" style="fill:none;stroke-width:3px;stroke-linecap:round;stroke-linejoin:round;stroke:#2b6e9b;"/><path d="M94.985,125.181l199.694,-103.587" style="fill:none;stroke-width:3px;stroke-linecap:round;stroke-linejoin:round;stroke:#7cd3f5;"/><path d="M95.076,124.904l338.338,-38.136" style="fill:none;stroke-width:3px;stroke-linecap:round;stroke-linejoin:round;stroke:#eb0000;"/></g></g></svg>