<svg width="440" height="189" viewBox="0 0 440 189" version="1.1" xmlns="http://www.w3.org/2000/svg" xmlns:xlink="http://www.w3.org/1999/xlink" xml:space="preserve" style="fill-rule:evenodd;clip-rule:evenodd;stroke-linecap:square;stroke-miterlimit:1.41421;"><g><g><path d="M16.686,130.682l5.798,4.531l5.609,4.896l5.054,4.645l4.369,3.847l4.807,2.998l4.509,3.381l4.814,3.241l6.676,1.45l6.559,2.575l2.138,1.153c0,0 6.414,0.66 10.379,0.824c3.965,0.165 8.471,-0.799 11.325,-1.841c2.854,-1.042 5.885,-1.705 7.479,-2.715c1.594,-1.009 5.522,-5.923 5.522,-5.923l2.361,-4.344c0,0 4.284,-5.161 5.329,-6.92c1.046,-1.758 4.341,-5.268 5.165,-7.248c0.823,-1.981 3.735,-6.232 4.122,-8.328c0.387,-2.095 2.599,-6.099 2.764,-8.245c0.164,-2.146 1.804,-6.009 2.66,-8.513c0.857,-2.504 3.349,-5.606 4.535,-7.751c1.186,-2.145 1.622,-5.54 3.187,-7.937c1.565,-2.396 3.513,-3.549 5.025,-5.254c1.512,-1.705 1.994,-3.485 4.172,-4.148c2.178,-0.662 5.544,-1.185 6.952,-0.798c1.408,0.386 3.814,1.482 6.19,1.317c2.375,-0.164 4.695,-0.881 7.031,-1.543c2.335,-0.663 3.925,-1.565 5.852,-2.088c1.927,-0.523 3.538,-0.487 5.745,-1.479c2.207,-0.992 5.931,-3.317 7.944,-4.144c2.013,-0.827 8.793,-5.222 10.362,-5.827c1.569,-0.606 7.101,-4.992 9.254,-5.129c2.153,-0.136 5.535,0.164 7.376,-0.63c1.84,-0.795 6.478,-3.43 8.352,-3.982c1.873,-0.553 4.914,-0.441 6.519,-0.112c1.605,0.33 3.57,0.638 5.415,-0.63c1.845,-1.268 10.659,-7.204 12.561,-8.25c1.903,-1.046 10.333,-6.23 12.944,-7.276c2.611,-1.046 9.222,-4.609 11.973,-5.548c2.75,-0.938 8.81,-3.649 10.959,-4.86c2.149,-1.21 4.323,-1.203 6.634,-1.894c2.31,-0.692 5.168,-2.335 7.318,-2.747c2.149,-0.412 3.302,-2.006 6.218,-2.088c2.915,-0.082 6.869,0.906 9.81,1.318c2.94,0.412 6.475,2.801 9.913,2.801c3.439,0 5.139,0.181 6.819,0.181c1.68,0 3.22,-0.087 4.127,-2.006c0.906,-1.919 2.392,-6.182 2.998,-7.722c0.605,-1.54 1.561,-4.065 2.661,-5.552c1.099,-1.486 2.8,-4.015 4.208,-4.455c1.408,-0.441 3.901,-0.91 5.391,0.416c1.49,1.325 7.803,4.921 9.261,5.72c1.458,0.799 6.791,3.983 8.084,5.745c1.293,1.762 4.174,4.475 5.822,6.517c1.647,2.042 7.084,7.248 8.076,8.821c0.992,1.573 4.967,7.397 6.099,9.378c1.132,1.98 6.025,8.36 6.466,10.097c0.44,1.738 5.214,9.065 6.013,11.185c0.798,2.121 1.725,5.516 3.187,7.744c1.462,2.227 5.015,9.476 5.868,11.181c0.852,1.705 3.37,4.663 4.284,6.87c0.914,2.206 4.253,6.275 5.435,8.038c1.182,1.762 5.092,4.21 6.743,6.306c1.652,2.095 7.859,7.639 7.859,7.639l0.222,56.001l-409.354,0l0.051,-42.889Z" style="fill:#7cd3f5;"/><path d="M16.527,132.724c0,0 8.101,6.779 9.617,7.993c1.515,1.215 8.047,7.64 9.344,8.608c1.297,0.967 7.017,5.827 8.722,6.844c1.705,1.017 4.23,4.835 6.157,5.276c1.927,0.44 4.992,0.275 6.672,0.798c1.68,0.523 4.477,1.57 6.075,2.422c1.597,0.852 5.555,1.894 7.189,1.894c1.634,0 5.004,0.05 7.235,0.52c2.232,0.469 4.37,0.416 6.759,-0.272c2.389,-0.688 4.933,-1.899 6.584,-2.422c1.652,-0.523 3.901,0.165 6.075,-1.099c2.174,-1.265 4.563,-4.387 5.609,-6.343c1.046,-1.956 4.319,-6.619 5.448,-8.241c1.128,-1.623 4.839,-5.375 5.498,-6.866c0.659,-1.49 2.6,-3.718 3.646,-5.67c1.046,-1.952 2.858,-6.06 3.295,-8.127c0.437,-2.066 1.562,-3.22 2.056,-5.612c0.494,-2.393 0.655,-4.555 1.622,-7.009c0.968,-2.454 1.185,-3.692 2.371,-5.681c1.185,-1.988 2.327,-4.427 3.324,-6.436c0.996,-2.01 1.601,-5.016 2.919,-6.725c1.318,-1.708 2.546,-3.13 4.119,-4.369c1.572,-1.24 2.413,-3.085 4.179,-2.862c1.767,0.222 3.031,1.973 4.328,3.628c1.297,1.655 4.728,6.808 5.91,8.875c1.182,2.067 2.446,4.452 2.998,6.849c0.551,2.396 1.762,4.978 3.298,7.428c1.537,2.451 3.292,5.029 4.449,7.039c1.156,2.009 2.61,3.517 3.327,6.049c0.716,2.533 2.223,5.573 3.628,7.919c1.404,2.347 1.87,3.773 3.192,5.835c1.321,2.063 1.432,2.063 1.432,2.063c0,0 2.495,1.115 3.187,2.189c0.692,1.075 1.537,2.479 3.353,3.414c1.815,0.935 2.797,1.701 6.346,1.894c3.55,0.194 4.617,-0.523 6.927,-0.852c2.31,-0.33 4.213,-1.651 6.548,-1.483c2.336,0.169 3.291,0.613 4.889,1.136c1.598,0.523 3.596,-0.193 5.362,-0.963c1.766,-0.77 2.339,-0.025 3.549,-1.619c1.211,-1.594 2.199,-4.95 4.155,-4.95c1.957,0 4.374,2.253 5.255,2.887c0.881,0.634 2.278,2.479 4.015,1.651c1.738,-0.827 4.09,-2.228 5.77,-2.833c1.68,-0.606 3.994,-1.977 6.004,-2.475c2.009,-0.498 3.957,-1.401 5.201,-1.734c1.243,-0.333 3.711,-1.894 4.814,-3.187c1.103,-1.293 3.402,-1.705 4.703,-1.705c1.301,0 0.613,1.54 2.207,1.099c1.594,-0.44 2.92,-3.015 4.658,-3.262c1.737,-0.247 3.434,-0.602 4.591,-2.142c1.157,-1.54 2.439,-2.722 3.876,-2.944c1.436,-0.223 2.256,-1.866 2.948,-3.353c0.692,-1.486 1.544,-1.762 3.414,-2.45c1.869,-0.688 3.871,-1.45 5.193,-1.45c1.321,0 2.726,-0.684 4.678,-1.812c1.952,-1.129 4.362,-3.664 5.766,-4.71c1.405,-1.046 4.341,-3.842 5.47,-5.193c1.128,-1.351 3.546,-4.946 4.18,-6.902c0.634,-1.956 2.528,-4.913 2.94,-6.709c0.412,-1.795 1.758,-4.336 2.249,-7.313c0.49,-2.977 2.525,-7.762 3.101,-9.99c0.577,-2.228 1.673,-4.774 2.743,-7.747c1.071,-2.973 2.665,-5.627 3.159,-7.669c0.495,-2.042 2.78,-4.896 3.357,-6.741c0.576,-1.845 1.669,-4.561 3.019,-6.138c1.35,-1.576 2.438,-3.932 4.176,-4.842c1.737,-0.911 3.126,-4.309 3.237,-6.182c0.111,-1.874 2.475,-5.333 2.924,-7.347c0.455,-2.044 1.708,-5.587 3.285,-6.193c1.577,-0.605 3.091,-2.339 5.344,-1.075c2.253,1.264 4.125,2.599 5.369,3.237c1.243,0.639 4.423,2.421 5.967,3.196c1.544,0.774 6.462,5.354 7.812,7.339c1.351,1.985 5.058,6.705 6.379,7.919c1.322,1.214 7.182,6.841 8.035,8.327c0.852,1.487 4.168,6.755 5.547,8.245c1.379,1.491 4.753,6.268 5.799,7.973c1.046,1.705 4.211,5.666 4.981,7.292c0.77,1.627 2.994,6.944 4.012,9.04c1.017,2.096 4.336,5.638 5.189,7.508c0.852,1.869 2.17,4.649 3.274,7.091c1.103,2.442 2.27,5.43 3.424,7.995c1.153,2.564 4.77,6.331 5.709,8.652c0.938,2.322 4.075,6.198 5.239,8.014c1.272,1.984 8.957,8.393 8.957,8.393l0.293,37.877l-409.545,0l-0.111,-40.709Z" style="fill:#ffb400;"/></g><g><g transform="matrix(0.92435,-0.381546,0.381546,0.92435,-10.0151,77.1775)"><text x="165.78px" y="63.845px" style="font-family:hcm;font-size:11px;fill:#52bcf1;">total power demand</text></g><g transform="matrix(1,-3.55271e-15,3.55271e-15,1,317.829,133.719)"><text x="-7.042px" y="0px" style="font-family:hcm;font-size:11px;fill:#fff;">power supplied  </text><text x="-3.827px" y="11px" style="font-family:hcm;font-size:11px;fill:#fff;">by fossil fuels</text></g><g transform="matrix(1,-3.55271e-15,3.55271e-15,1,199.143,95.4034)"><text x="-0.043px" y="0px" style="font-family:hcm;font-size:11px;fill:#fff;">power supplied </text><text x="-0.043px" y="11px" style="font-family:hcm;font-size:11px;fill:#fff;">by sun and wind</text></g><text x="62.088px" y="76.545px" style="font-family:hcm;font-size:11px;fill:#b1b1b1;">sun comes up</text><g transform="matrix(1,-3.55271e-15,3.55271e-15,1,362.679,8.69096)"><text x="-0.043px" y="0px" style="font-family:hcm;font-size:11px;fill:#b1b1b1;">sun goes down </text><text x="-0.043px" y="11px" style="font-family:hcm;font-size:11px;fill:#b1b1b1;">but wind picks up</text></g></g><g><path d="M313.527,26.375l0,-20.875l46.778,0" style="fill:none;stroke-width:1px;stroke:#b2b2b2;"/><path d="M126.457,73.497l12.827,0l0.173,8.472" style="fill:none;stroke-width:1px;stroke:#b2b2b2;"/></g><g><path d="M16.5,4.575l0,154.487" style="fill:none;stroke-width:0.91px;stroke:#979797;"/><path d="M11.379,157.198l0,3.78l11.56,4.239l0,-3.623l-11.56,-4.396Z" style="fill:#fff;"/><path d="M11.201,157.586l11.371,4.021" style="fill:none;stroke-width:1px;stroke:#979797;"/><path d="M11.201,160.948l11.371,4.022" style="fill:none;stroke-width:1px;stroke:#979797;"/></g><path d="M16.632,173.66l409.24,0" style="fill:none;stroke-width:1px;stroke:#979797;"/><g><text x="1.48px" y="65.575px" style="font-family:hcm;font-size:11px;fill:#afafaf;">28</text><text x="1.48px" y="37.065px" style="font-family:hcm;font-size:11px;fill:#afafaf;">30</text><text x="1.48px" y="8.556px" style="font-family:hcm;font-size:11px;fill:#afafaf;">32</text><text x="1.48px" y="94.084px" style="font-family:hcm;font-size:11px;fill:#afafaf;">26</text><text x="1.48px" y="122.593px" style="font-family:hcm;font-size:11px;fill:#afafaf;">24</text><text x="1.48px" y="151.103px" style="font-family:hcm;font-size:11px;fill:#afafaf;">22</text></g><g><text x="3.997px" y="186.25px" style="font-family:hcm;font-size:11px;fill:#afafaf;">12am</text><text x="75.071px" y="186.25px" style="font-family:hcm;font-size:11px;fill:#afafaf;">4am</text><text x="109.233px" y="186.25px" style="font-family:hcm;font-size:11px;fill:#afafaf;">6am</text><text x="143.395px" y="186.25px" style="font-family:hcm;font-size:11px;fill:#afafaf;">8am</text><text x="40.909px" y="186.25px" style="font-family:hcm;font-size:11px;fill:#afafaf;">2am</text><text x="174.807px" y="186.583px" style="font-family:hcm;font-size:11px;fill:#afafaf;">10am</text><text x="208.66px" y="186.583px" style="font-family:hcm;font-size:11px;fill:#afafaf;">12pm</text><text x="245.572px" y="186.583px" style="font-family:hcm;font-size:11px;fill:#afafaf;">2pm</text><text x="279.734px" y="186.583px" style="font-family:hcm;font-size:11px;fill:#afafaf;">4pm</text><text x="313.896px" y="186.583px" style="font-family:hcm;font-size:11px;fill:#afafaf;">6pm</text><text x="348.058px" y="186.583px" style="font-family:hcm;font-size:11px;fill:#afafaf;">8pm</text><text x="379.47px" y="186.583px" style="font-family:hcm;font-size:11px;fill:#afafaf;">10pm</text><text x="413.94px" y="186.583px" style="font-family:hcm;font-size:11px;fill:#afafaf;">12am</text></g><g><path d="M14,118.882l1.638,0" style="fill:none;stroke-width:1px;stroke:#979797;"/><path d="M14,61.75l1.638,0" style="fill:none;stroke-width:1px;stroke:#979797;"/><path d="M14,33.185l1.638,0" style="fill:none;stroke-width:1px;stroke:#979797;"/><path d="M14,4.619l1.638,0" style="fill:none;stroke-width:1px;stroke:#979797;"/><path d="M14,147.447l1.638,0" style="fill:none;stroke-width:1px;stroke:#979797;"/><path d="M14,90.316l1.638,0" style="fill:none;stroke-width:1px;stroke:#979797;"/></g><g><path d="M50.607,174.517l0,3.004" style="fill:none;stroke-width:1px;stroke:#979797;"/><path d="M67.66,174.317l0,1.322" style="fill:none;stroke-width:0.77px;stroke:#979797;"/><path d="M152.926,174.517l0,3.004" style="fill:none;stroke-width:1px;stroke:#979797;"/><path d="M169.98,174.317l0,1.322" style="fill:none;stroke-width:1px;stroke:#979797;"/><path d="M187.033,174.517l0,3.004" style="fill:none;stroke-width:1px;stroke:#979797;"/><path d="M204.086,174.317l0,1.322" style="fill:none;stroke-width:1px;stroke:#979797;"/><path d="M84.713,174.517l0,3.004" style="fill:none;stroke-width:1px;stroke:#979797;"/><path d="M101.767,174.317l0,1.322" style="fill:none;stroke-width:0.77px;stroke:#979797;"/><path d="M118.82,174.517l0,3.004" style="fill:none;stroke-width:1px;stroke:#979797;"/><path d="M135.873,174.317l0,1.322" style="fill:none;stroke-width:0.77px;stroke:#979797;"/><path d="M16.5,163.35l0,13.814" style="fill:none;stroke-width:1px;stroke:#979797;"/><path d="M33.553,174.16l0,1.322" style="fill:none;stroke-width:0.77px;stroke:#979797;"/><path d="M221.14,174.517l0,3.004" style="fill:none;stroke-width:1px;stroke:#979797;"/><path d="M238.193,174.317l0,1.322" style="fill:none;stroke-width:0.77px;stroke:#979797;"/><path d="M255.246,174.517l0,3.004" style="fill:none;stroke-width:1px;stroke:#979797;"/><path d="M272.3,174.317l0,1.322" style="fill:none;stroke-width:0.77px;stroke:#979797;"/><path d="M289.353,174.517l0,3.004" style="fill:none;stroke-width:1px;stroke:#979797;"/><path d="M306.406,174.317l0,1.322" style="fill:none;stroke-width:0.77px;stroke:#979797;"/><path d="M323.46,174.517l0,3.004" style="fill:none;stroke-width:1px;stroke:#979797;"/><path d="M340.513,174.317l0,1.322" style="fill:none;stroke-width:0.77px;stroke:#979797;"/><path d="M357.566,174.517l0,3.004" style="fill:none;stroke-width:1px;stroke:#979797;"/><path d="M374.62,174.317l0,1.322" style="fill:none;stroke-width:0.77px;stroke:#979797;"/><path d="M391.673,174.517l0,3.004" style="fill:none;stroke-width:1px;stroke:#979797;"/><path d="M408.726,174.317l0,1.322" style="fill:none;stroke-width:0.77px;stroke:#979797;"/><path d="M425.779,174.517l0,3.004" style="fill:none;stroke-width:1px;stroke:#979797;"/></g></g></svg>