<svg class="grid-schematic" width="440px" height="90px" viewBox="0 0 440 90" version="1.1" xmlns="http://www.w3.org/2000/svg" xmlns:xlink="http://www.w3.org/1999/xlink" xmlns:sketch="http://www.bohemiancoding.com/sketch/ns">
    <!-- Generator: Sketch 3.3.3 (12072) - http://www.bohemiancoding.com/sketch -->
    <title>Artboard 1</title>
    <desc>Created with Sketch.</desc>
    <defs></defs>
    <g stroke="none" stroke-width="1" fill="none" fill-rule="evenodd" sketch:type="MSPage">
        <g sketch:type="MSArtboardGroup">
            <g sketch:type="MSLayerGroup">
                <g transform="translate(64.000000, 40.000000)" stroke="#F6A623" sketch:type="MSShapeGroup">
                    <path d="M0.740234375,1.67773438 L28.5390625,1.67773438"></path>
                    <path d="M0.740234375,5.88225225 L28.5390625,5.88225225"></path>
                </g>
                <g transform="translate(121.000000, 4.000000)" stroke="#F6A623" sketch:type="MSShapeGroup">
                    <path d="M0.740234375,36.6777344 L52.5,1.5"></path>
                    <path d="M0.740234375,39.8822523 L47.5,8.49999997"></path>
                </g>
                <g transform="translate(242.500000, 24.000000) scale(-1, 1) translate(-242.500000, -24.000000) translate(216.000000, 4.000000)" stroke="#F6A623" sketch:type="MSShapeGroup">
                    <path d="M0.740234375,36.6777344 L52.5,1.5"></path>
                    <path d="M0.740234375,39.8822523 L47.5,8.49999997"></path>
                </g>
                <g transform="translate(294.000000, 26.000000)" stroke="#F6A623" sketch:type="MSShapeGroup">
                    <path d="M0.740234375,14.6777344 L38.5,1.5"></path>
                    <path d="M0.740234375,19.8822523 L38.5,7.49999997"></path>
                </g>
                <g transform="translate(387.000000, 34.000000) scale(-1, 1) translate(-387.000000, -34.000000) translate(372.000000, 26.000000)" stroke="#F6A623" sketch:type="MSShapeGroup">
                    <path d="M1.5,10.5 L29.5,1.5"></path>
                    <path d="M2.5,15.4999996 L29.5,7.49999997"></path>
                </g>
                <g fill="#000000" sketch:type="MSShapeGroup">
                    <path d="M6.12603604,7.85323786 C6.40877616,8.0258365 6.78576299,8.0258365 7.06850312,8.0258365 C7.82247678,8.0258365 8.57645045,7.59433991 8.95343728,6.90394537 C9.04768399,6.73134674 9.1419307,6.64504742 9.33042412,6.5587481 C9.70741095,6.47244879 10.2728912,6.47244879 10.8383714,6.47244879 L13.6657727,6.5587481 C14.8909799,6.64504742 16.3989272,6.64504742 17.9068746,6.21355084 C19.1320818,5.78205425 20.1687956,5.09165971 21.0170159,4.48756449 C21.959483,3.79716996 22.1479764,2.58897952 21.4882495,1.63968703 C20.8285225,0.690394537 19.5090686,0.517795903 18.5666015,1.20819044 C17.9068746,1.72598634 17.2471476,2.15748293 16.5874207,2.33008156 C15.7392003,2.58897952 14.7967332,2.58897952 13.8542661,2.58897952 L11.0268649,2.5026802 C10.0843978,2.5026802 9.04768399,2.41638088 7.82247678,2.84787747 C6.69151629,3.19307474 5.65480249,4.05606791 5.18356895,5.09165971 C4.6180887,6.12725152 5.08932225,7.33544196 6.12603604,7.85323786 L6.12603604,7.85323786 Z"></path>
                    <path d="M46.2751337,32.3622439 L46.2751337,26.2349924 C46.2751337,25.9760945 45.9923936,25.8034958 45.8039002,25.8897952 L24.6926376,33.4841351 C24.5041441,33.5704344 24.221404,33.3978357 24.221404,33.1389378 L24.221404,26.1486931 C24.221404,25.8897952 23.9386639,25.7171965 23.7501705,25.8034958 L11.4038517,30.2910603 C11.2153583,30.3773596 10.9326182,30.204761 10.9326182,29.9458631 L10.9326182,10.7874146 C10.9326182,10.614816 10.7441247,10.4422174 10.5556313,10.4422174 L4.42959529,10.4422174 C4.24110187,10.4422174 4.05260845,10.614816 4.05260845,10.7874146 L4.05260845,32.9663392 L4.05260845,33.0526385 L0.282740125,34.4334276 C0.0942467082,34.4334276 0,34.6060262 0,34.7786248 L0,61.0136172 C0,61.0999166 0.188493416,61.2725152 0.376986833,61.2725152 L65.6899556,61.2725152 C65.8784491,61.2725152 66.0669425,61.0999166 66.0669425,60.9273179 L66.0669425,26.2349924 C66.0669425,25.9760945 65.7842024,25.8034958 65.5957089,25.8897952 L46.840614,32.6211419 C46.5578739,32.7937405 46.2751337,32.6211419 46.2751337,32.3622439 L46.2751337,32.3622439 Z M17.6241344,50.8302978 L6.8800097,50.8302978 C6.69151629,50.8302978 6.50302287,50.6576992 6.50302287,50.4851005 L6.50302287,45.1345429 C6.50302287,42.2003661 8.67069716,39.6113866 11.7808385,39.3524886 C15.17372,39.0935907 18.0011213,41.5962709 18.0011213,44.8756449 L18.0011213,50.4851005 C18.0011213,50.6576992 17.8126279,50.8302978 17.6241344,50.8302978 L17.6241344,50.8302978 Z M38.3584103,50.8302978 L27.6142855,50.8302978 C27.4257921,50.8302978 27.2372987,50.6576992 27.2372987,50.4851005 L27.2372987,45.1345429 C27.2372987,42.2003661 29.404973,39.6113866 32.5151143,39.3524886 C35.9079958,39.0935907 38.7353971,41.5962709 38.7353971,44.8756449 L38.7353971,50.4851005 C38.7353971,50.6576992 38.5469037,50.8302978 38.3584103,50.8302978 L38.3584103,50.8302978 Z M59.0926861,50.8302978 L48.3485613,50.8302978 C48.1600679,50.8302978 47.9715745,50.6576992 47.9715745,50.4851005 L47.9715745,45.1345429 C47.9715745,42.2003661 50.1392488,39.6113866 53.2493902,39.3524886 C56.6422717,39.0935907 59.4696729,41.5962709 59.4696729,44.8756449 L59.4696729,50.4851005 C59.4696729,50.6576992 59.2811795,50.8302978 59.0926861,50.8302978 L59.0926861,50.8302978 Z"></path>
                </g>
                <g transform="translate(167.287907, 5.250888)" fill="#000000" sketch:type="MSShapeGroup">
                    <rect x="4.66016313" y="0.396869444" width="13.9087946" height="0.595304166"></rect>
                    <rect x="4.66016313" y="1.52133287" width="13.9087946" height="0.595304166"></rect>
                    <rect x="36.1341879" y="0.396869444" width="13.9087946" height="0.595304166"></rect>
                    <rect x="36.1341879" y="1.52133287" width="13.9087946" height="0.595304166"></rect>
                    <rect x="0.358474087" y="7.27593981" width="15.8445546" height="0.661449074"></rect>
                    <rect x="0.358474087" y="8.59883796" width="15.8445546" height="0.661449074"></rect>
                    <rect x="38.2133376" y="7.27593981" width="15.8445546" height="0.661449074"></rect>
                    <rect x="38.2133376" y="8.59883796" width="15.8445546" height="0.661449074"></rect>
                    <path d="M36.9228309,9.32643194 L36.9228309,7.27593981 L31.9041937,7.27593981 L31.9041937,2.11663704 L34.915376,2.11663704 L34.915376,0.396869444 L19.8594644,0.396869444 L19.8594644,2.11663704 L22.8706467,2.11663704 L22.8706467,7.27593981 L17.8520095,7.27593981 L17.8520095,9.32643194 L22.368783,9.32643194 L13.9087946,56.7523305 L17.3501458,56.7523305 L27.459115,47.4258986 L37.5680843,56.7523305 L40.6509614,56.7523305 L32.4060574,9.32643194 L36.9228309,9.32643194 L36.9228309,9.32643194 Z M31.9041937,21.4970949 L28.1760632,18.0575597 L30.9004663,15.5440532 L31.9041937,21.4970949 L31.9041937,21.4970949 Z M24.3762379,2.11663704 L30.5419922,2.11663704 L30.5419922,7.27593981 L24.3762379,7.27593981 L24.3762379,2.11663704 L24.3762379,2.11663704 Z M30.1835181,11.5753588 L27.7458943,9.32643194 L29.7533492,9.32643194 L30.1835181,11.5753588 L30.1835181,11.5753588 Z M25.8818291,9.32643194 L24.6630172,10.4508954 L24.8781016,9.32643194 L25.8818291,9.32643194 L25.8818291,9.32643194 Z M24.3762379,12.4352426 L26.8138617,10.1863157 L30.5419922,13.6258509 L30.613687,14.1550102 L27.2440306,17.1976759 L24.0177638,14.2211551 L24.3762379,12.4352426 L24.3762379,12.4352426 Z M23.8026794,15.676343 L26.3836928,18.0575597 L22.7989519,21.3648051 L23.8026794,15.676343 L23.8026794,15.676343 Z M22.0103089,25.6642241 L26.3836928,29.6990634 L20.2896333,35.3213805 L22.0103089,25.6642241 L22.0103089,25.6642241 Z M16.7048924,55.694012 L19.5009903,40.017669 L26.5987772,46.5660148 L16.7048924,55.694012 L16.7048924,55.694012 Z M37.9265584,55.2971426 L28.4628425,46.5660148 L35.2738501,40.2822486 L37.9265584,55.2971426 L37.9265584,55.2971426 Z M34.9870709,38.8270606 L27.5308099,45.706131 L19.7160748,38.562481 L19.9311592,37.3057278 L27.2440306,30.5589472 L34.7002916,37.4380176 L34.9870709,38.8270606 L34.9870709,38.8270606 Z M34.4135123,35.3875254 L28.247758,29.6990634 L32.6928367,25.5980791 L34.4135123,35.3875254 L34.4135123,35.3875254 Z M32.4060574,24.1428912 L27.3157254,28.8391796 L22.2970882,24.2090361 L22.4404778,23.4152972 L27.3157254,18.9174435 L32.3343626,23.547587 L32.4060574,24.1428912 L32.4060574,24.1428912 Z"></path>
                </g>
                <g transform="translate(86.989712, 18.378108)" fill="#000000" sketch:type="MSShapeGroup">
                    <path d="M40.1128383,13.5133148 L40.1128383,12.2263324 L30.7579007,12.2263324 L33.0257644,10.1671606 L35.7188524,10.1671606 L35.7188524,8.49408358 L30.0491933,8.49408358 L30.0491933,1.02958589 C30.0491933,0.386094708 29.4822274,2.91974216e-13 28.9152615,2.91974216e-13 C28.2065541,2.91974216e-13 27.7813297,0.514792944 27.7813297,1.02958589 L27.7813297,8.49408358 L21.6864461,8.49408358 L21.6864461,1.02958589 C21.6864461,0.386094708 21.1194802,2.91974216e-13 20.5525143,2.91974216e-13 C19.8438069,2.91974216e-13 19.4185825,0.514792944 19.4185825,1.02958589 L19.4185825,8.49408358 L13.3236989,8.49408358 L13.3236989,1.02958589 C13.3236989,0.386094708 12.756733,2.91974216e-13 12.1897671,2.91974216e-13 C11.4810597,2.91974216e-13 11.0558353,0.514792944 11.0558353,1.02958589 L11.0558353,8.49408358 L4.96095173,8.49408358 L4.96095173,10.1671606 L7.65403981,10.1671606 L9.92190346,12.2263324 L0.566965912,12.2263324 L0.566965912,13.5133148 L8.3627472,13.5133148 L8.3627472,18.532546 L6.23662503,18.532546 L6.23662503,23.0369843 L8.3627472,23.0369843 L8.3627472,24.4526648 L6.23662503,24.4526648 L6.23662503,33.3328431 L8.3627472,33.3328431 L8.3627472,33.9763343 L0.566965912,33.9763343 L0.566965912,35.2633167 L8.3627472,35.2633167 L8.3627472,36.6789973 L9.92190346,36.6789973 L9.92190346,35.2633167 L11.1975768,35.2633167 L11.1975768,37.4511867 L0.566965912,37.4511867 L0.566965912,38.738169 L6.23662503,38.738169 L6.23662503,42.7278144 L34.7266621,42.7278144 L34.7266621,38.738169 L40.3963212,38.738169 L40.3963212,37.4511867 L29.7657104,37.4511867 L29.7657104,35.2633167 L31.0413837,35.2633167 L31.0413837,36.6789973 L32.6005399,36.6789973 L32.6005399,35.2633167 L40.3963212,35.2633167 L40.3963212,33.9763343 L32.6005399,33.9763343 L32.6005399,32.9467484 L34.7266621,32.9467484 L34.7266621,15.4437883 L32.6005399,15.4437883 L32.6005399,13.5133148 L40.1128383,13.5133148 L40.1128383,13.5133148 Z M11.7645427,32.8180502 L11.7645427,14.8002971 L12.8984745,14.8002971 L12.8984745,32.8180502 L11.7645427,32.8180502 L11.7645427,32.8180502 Z M14.3158893,32.8180502 L14.3158893,14.8002971 L15.4498211,14.8002971 L15.4498211,32.8180502 L14.3158893,32.8180502 L14.3158893,32.8180502 Z M17.0089774,32.8180502 L17.0089774,14.8002971 L18.1429092,14.8002971 L18.1429092,32.8180502 L17.0089774,32.8180502 L17.0089774,32.8180502 Z M19.560324,32.8180502 L19.560324,14.8002971 L20.6942558,14.8002971 L20.6942558,32.8180502 L19.560324,32.8180502 L19.560324,32.8180502 Z M22.253412,32.8180502 L22.253412,14.8002971 L23.3873439,14.8002971 L23.3873439,32.8180502 L22.253412,32.8180502 L22.253412,32.8180502 Z M24.9465001,32.8180502 L24.9465001,14.8002971 L26.0804319,14.8002971 L26.0804319,32.8180502 L24.9465001,32.8180502 L24.9465001,32.8180502 Z M28.77352,32.8180502 L27.6395882,32.8180502 L27.6395882,14.8002971 L28.77352,14.8002971 L28.77352,32.8180502 L28.77352,32.8180502 Z"></path>
                </g>
                <g transform="translate(261.792859, 18.378108)" fill="#000000" sketch:type="MSShapeGroup">
                    <path d="M40.1128383,13.5133148 L40.1128383,12.2263324 L30.7579007,12.2263324 L33.0257644,10.1671606 L35.7188524,10.1671606 L35.7188524,8.49408358 L30.0491933,8.49408358 L30.0491933,1.02958589 C30.0491933,0.386094708 29.4822274,2.91974216e-13 28.9152615,2.91974216e-13 C28.2065541,2.91974216e-13 27.7813297,0.514792944 27.7813297,1.02958589 L27.7813297,8.49408358 L21.6864461,8.49408358 L21.6864461,1.02958589 C21.6864461,0.386094708 21.1194802,2.91974216e-13 20.5525143,2.91974216e-13 C19.8438069,2.91974216e-13 19.4185825,0.514792944 19.4185825,1.02958589 L19.4185825,8.49408358 L13.3236989,8.49408358 L13.3236989,1.02958589 C13.3236989,0.386094708 12.756733,2.91974216e-13 12.1897671,2.91974216e-13 C11.4810597,2.91974216e-13 11.0558353,0.514792944 11.0558353,1.02958589 L11.0558353,8.49408358 L4.96095173,8.49408358 L4.96095173,10.1671606 L7.65403981,10.1671606 L9.92190346,12.2263324 L0.566965912,12.2263324 L0.566965912,13.5133148 L8.3627472,13.5133148 L8.3627472,18.532546 L6.23662503,18.532546 L6.23662503,23.0369843 L8.3627472,23.0369843 L8.3627472,24.4526648 L6.23662503,24.4526648 L6.23662503,33.3328431 L8.3627472,33.3328431 L8.3627472,33.9763343 L0.566965912,33.9763343 L0.566965912,35.2633167 L8.3627472,35.2633167 L8.3627472,36.6789973 L9.92190346,36.6789973 L9.92190346,35.2633167 L11.1975768,35.2633167 L11.1975768,37.4511867 L0.566965912,37.4511867 L0.566965912,38.738169 L6.23662503,38.738169 L6.23662503,42.7278144 L34.7266621,42.7278144 L34.7266621,38.738169 L40.3963212,38.738169 L40.3963212,37.4511867 L29.7657104,37.4511867 L29.7657104,35.2633167 L31.0413837,35.2633167 L31.0413837,36.6789973 L32.6005399,36.6789973 L32.6005399,35.2633167 L40.3963212,35.2633167 L40.3963212,33.9763343 L32.6005399,33.9763343 L32.6005399,32.9467484 L34.7266621,32.9467484 L34.7266621,15.4437883 L32.6005399,15.4437883 L32.6005399,13.5133148 L40.1128383,13.5133148 L40.1128383,13.5133148 Z M11.7645427,32.8180502 L11.7645427,14.8002971 L12.8984745,14.8002971 L12.8984745,32.8180502 L11.7645427,32.8180502 L11.7645427,32.8180502 Z M14.3158893,32.8180502 L14.3158893,14.8002971 L15.4498211,14.8002971 L15.4498211,32.8180502 L14.3158893,32.8180502 L14.3158893,32.8180502 Z M17.0089774,32.8180502 L17.0089774,14.8002971 L18.1429092,14.8002971 L18.1429092,32.8180502 L17.0089774,32.8180502 L17.0089774,32.8180502 Z M19.560324,32.8180502 L19.560324,14.8002971 L20.6942558,14.8002971 L20.6942558,32.8180502 L19.560324,32.8180502 L19.560324,32.8180502 Z M22.253412,32.8180502 L22.253412,14.8002971 L23.3873439,14.8002971 L23.3873439,32.8180502 L22.253412,32.8180502 L22.253412,32.8180502 Z M24.9465001,32.8180502 L24.9465001,14.8002971 L26.0804319,14.8002971 L26.0804319,32.8180502 L24.9465001,32.8180502 L24.9465001,32.8180502 Z M28.77352,32.8180502 L27.6395882,32.8180502 L27.6395882,14.8002971 L28.77352,14.8002971 L28.77352,32.8180502 L28.77352,32.8180502 Z"></path>
                </g>
                <g transform="translate(328.840229, 13.127220)" fill="#000000" sketch:type="MSShapeGroup">
                    <g>
                        <path d="M11.4626956,6.52653177 C11.4626956,8.95619607 8.96091153,10.7670474 6.81287677,11.8007057 C5.53891014,12.4135323 4.14550838,12.8907628 2.69909901,13.2498955 L2.69909901,14.5360935 C4.37016518,14.1445026 5.98365958,13.6064945 7.45415571,12.8990501 C9.24237628,12.038516 11.0739444,10.7725756 12.0707756,9.13045974 C12.6753009,10.4053785 13.6756599,11.5297365 14.8175137,12.4869639 C16.4941589,13.892181 18.5729861,15.0400262 20.7055442,15.9730705 L20.7055442,14.5867289 C18.9023625,13.7570431 17.1630847,12.7609129 15.7463547,11.5734788 C14.1754494,10.2568932 12.8320025,8.5436394 12.8320025,6.52653177 L11.4626902,6.52653177 L11.4626956,6.52653177 Z"></path>
                        <path d="M2.69909901,19.8606823 C5.69612456,19.6864113 8.68578157,19.3857528 11.6394326,18.9425954 C15.140299,18.4174814 18.6883456,17.682411 22.0748511,16.6411588 L22.0748511,9.94518088 L16.9399232,6.52653422 L31.3176997,6.52653422 L26.1827719,9.94518088 L26.1827719,15.181594 C28.4593782,14.2462389 30.7380143,13.0597238 32.5112683,11.5734813 C34.0821736,10.2568956 35.4256205,8.54364185 35.4256205,6.52653422 L36.7949328,6.52653422 C36.7949328,8.95619852 39.2964631,10.7670499 41.4447516,11.8007082 C42.5975098,12.3552909 43.8484018,12.7989115 45.1477265,13.1444591 L45.1477265,14.4366435 C43.6229731,14.0549498 42.1529952,13.5484834 40.8034457,12.8990525 C39.0149714,12.0385185 37.183657,10.772578 36.1868258,9.13046219 C35.5823005,10.405381 34.5819415,11.5297389 33.4400877,12.4869663 C31.4053935,14.1921509 28.7788516,15.5183985 26.1827233,16.5412505 L26.1827233,47.2395522 L22.0747756,47.2395522 L22.0747756,17.951709 C18.7508891,18.9443866 15.2865416,19.655514 11.8624915,20.1691185 C8.83529007,20.6233273 5.77084102,20.9302025 2.69899644,21.1063138 L2.69899644,19.8606333 L2.69909901,19.8606823 Z"></path>
                        <path d="M45.1478291,19.8358106 C42.2885115,19.6585469 39.4367785,19.3654854 36.6182983,18.9425856 C33.5865354,18.4879161 30.5192793,17.8755502 27.5521867,17.0433306 L27.5521867,18.3428809 C30.4520717,19.1350436 33.4387057,19.7257674 36.3948939,20.1691577 C39.2874373,20.6028786 42.2137195,20.9026157 45.1478291,21.0819517 L45.1478291,19.8358106 L45.1478291,19.8358106 Z"></path>
                        <path d="M8.38175506,0 L11.1203689,0 L11.1203689,2.48628848 L13.1743292,2.48628848 L13.1743292,0 L15.9129431,0 L15.9129431,2.48628848 L32.3446529,2.48628848 L32.3446529,0 L35.0834287,0 L35.0834287,2.48628848 L37.1371731,2.48628848 L37.1371731,0 L39.8759489,0 L39.8759489,2.48628848 L41.2452018,2.48628848 L41.2452018,5.28338753 L7.01242116,5.2589814 L7.01242116,2.48628848 L8.38175506,2.48628848 L8.38175506,0 Z"></path>
                    </g>
                </g>
                <g transform="translate(393.667254, 23.628996)" fill="#000000" sketch:type="MSShapeGroup">
                    <path d="M45.2082248,14.468822 L23.1663133,0.253640722 C22.9332555,0.103381614 22.6234203,0.103381614 22.3903624,0.253640722 L0.353902655,14.468822 C0.20716253,14.5642512 0.107669999,14.7086506 0.0763230372,14.8710476 C0.0454303793,15.0338632 0.0858634169,15.2012828 0.188536074,15.3364741 L3.18966693,19.2850658 C3.32186933,19.4587637 3.53084908,19.5508445 3.74482617,19.5508445 C3.87839148,19.5508445 4.01377401,19.5148493 4.131893,19.4382548 L22.781518,7.40580682 L41.4302344,19.4382548 C41.7382524,19.6358099 42.1589377,19.5667493 42.3724605,19.2850658 L45.3740456,15.3364741 C45.476264,15.2012828 45.5171513,15.0334446 45.4858044,14.8710476 C45.455366,14.7090691 45.3554192,14.5642512 45.2082248,14.468822 L45.2082248,14.468822 Z"></path>
                    <path d="M39.7315925,20.7880755 L23.1690391,10.1025183 C22.9364356,9.95267776 22.6261461,9.95267776 22.3935426,10.1025183 L5.74285425,20.8449981 C5.56204134,20.9609362 5.45437134,21.1517946 5.45437134,21.355628 L5.45437134,37.869062 C5.45437134,38.2122722 5.75739197,38.491863 6.13128399,38.491863 L17.7169393,38.491863 C18.090377,38.491863 18.3933977,38.2122722 18.3933977,37.869062 L18.3933977,23.4785087 L27.170547,23.4785087 L27.170547,37.869062 C27.170547,38.2122722 27.4731133,38.491863 27.8470053,38.491863 L39.34498,38.491863 C39.718872,38.491863 40.0200754,38.2122722 40.0200754,37.869062 L40.0200754,21.2982868 C40.0196211,21.0948719 39.9128597,20.9048506 39.7315925,20.7880755 L39.7315925,20.7880755 Z"></path>
                    <path d="M33.7152474,4.92548517 L38.899308,8.26969205 C39.0156097,8.34419378 39.1509923,8.38228174 39.2872834,8.38228174 C39.3944991,8.38228174 39.5026234,8.358843 39.5998444,8.31238405 C39.8224533,8.2052355 39.9637418,7.99177548 39.9637418,7.75948076 L39.9637418,0.702325299 C39.9637418,0.358277983 39.6607211,0.0795243187 39.2872834,0.0795243187 L34.1023142,0.0795243187 C33.7288765,0.0795243187 33.4263102,0.358696532 33.4263102,0.702325299 L33.4263102,4.41527389 C33.4258559,4.61785162 33.5330716,4.80870999 33.7152474,4.92548517 L33.7152474,4.92548517 Z"></path>
                </g>
                <g transform="translate(6.000000, 62.000000)" sketch:type="MSTextLayer" sketch:alignment="middle" fill="#939393">
                    <text>
                        <tspan x="0.3915" y="11">power plant</tspan>
                    </text>
                    <text letter-spacing="-0.084615387">
                        <tspan x="161.127692" y="11">transmission</tspan>
                        <tspan x="178.833038" y="24">lines</tspan>
                    </text>
                    <text>
                        <tspan x="320.8705" y="11">distribution</tspan>
                        <tspan x="335.6215" y="24">lines</tspan>
                    </text>
                    <text>
                        <tspan x="84.0985" y="11">step-up</tspan>
                        <tspan x="75.0565" y="24">transformer</tspan>
                    </text>
                    <text>
                        <tspan x="253.5315" y="11">step-down</tspan>
                        <tspan x="251.0565" y="24">transformer</tspan>
                    </text>
                    <text>
                        <tspan x="389.6325" y="11">lights, etc</tspan>
                    </text>
                </g>
            </g>
        </g>
    </g>
</svg>