<svg width="440" height="156" viewBox="0 0 440 156" version="1.1" xmlns="http://www.w3.org/2000/svg" xmlns:xlink="http://www.w3.org/1999/xlink" xml:space="preserve" style="fill-rule:evenodd;clip-rule:evenodd;stroke-linecap:round;stroke-linejoin:round;stroke-miterlimit:1.41421;"><g><rect x="-2.846" y="-39.807" width="446.076" height="204.613" style="fill:#fff;"/></g><g><path d="M280.724,139.963l0,-67.141l8.527,0l0,66.861l-8.527,0.28Z" style="fill:#98ecf6;"/><path d="M245.592,139.963l0,-67.141l16.567,0l0,66.861l-16.567,0.28Z" style="fill:#98ecf6;"/><path d="M210.437,139.963l0,-67.141l16.299,0l0,66.861l-16.299,0.28Z" style="fill:#98ecf6;"/><path d="M182.572,139.963l0,-67.141l8.922,0l0,66.861l-8.922,0.28Z" style="fill:#98ecf6;"/><path d="M147.591,139.963l0,-67.141l12.169,0l0,66.861l-12.169,0.28Z" style="fill:#98ecf6;"/><path d="M110.876,139.963l0,-67.141l12.169,0l0,66.861l-12.169,0.28Z" style="fill:#98ecf6;"/></g><g><path d="M47.987,75.791c0,0 4.216,-72.504 4.305,-72.309c0.09,0.194 7.764,4.861 7.764,4.861l7.964,73.185l-3.568,0.047l-8.825,0.116l-7.64,-5.9Z" style="fill:#7cd3f5;"/></g><g><path d="M39.145,98.876l8.777,-23.382l8.937,5.074l11.06,0l1.176,18.771l-29.95,-0.463Z" style="fill:#0fa6d8;"/></g><g><path d="M30.291,139.32l3.232,-40.869l48.788,0l5.116,40.419l-57.136,0.45Z" style="fill:#177797;"/></g><g><path d="M15.029,114.375l16.268,0.318l1.312,0.779l33.223,0.253l2.62,-1.091l13.938,0l3.749,-2.049l33.366,0l3.32,-2.584l13.852,0l5.406,-1.773l10.918,0l5.143,-2.653l14.238,0l3.849,-18.051l13.129,0l5.788,-19.868l11.485,0l5.433,27.048l11.825,0l5.719,-20.551l11.93,0l5.382,16.474l13.64,0l5.114,-12.041l12.322,0l5.295,10.356l12.084,0l4.603,-82.905l13.831,0l4.242,64.635l13.567,0l3.675,28.065l13.75,0l5.608,-46.991l12.731,0l4.871,25.306l12.01,0l4.761,25.603l14.059,0l3.807,6.731l29.876,0" style="fill:none;stroke-width:2px;stroke:#f6cc5c;stroke-opacity:0.576471;"/></g><g><path d="M15.578,117.366l421.125,0.059M15.578,94.988l421.125,0.059M15.578,72.64l421.125,0.059M15.578,50.351l421.125,0.059M15.578,27.914l421.125,0.059" style="fill:none;stroke-width:1px;stroke-miterlimit:10;stroke:#000;stroke-opacity:0.0235294;"/><path d="M15.578,6.025l421.125,0.059" style="fill:none;stroke-width:1px;stroke-miterlimit:10;stroke:#000;stroke-opacity:0.0235294;"/><path d="M15.5,5.977l0,132.782" style="fill:none;stroke-width:1px;stroke-linecap:square;stroke-linejoin:miter;stroke:#979797;"/><path d="M15.479,139.5l421.045,0" style="fill:none;stroke-width:1px;stroke-linecap:square;stroke-linejoin:miter;stroke:#979797;"/><g><text x="-0.404px" y="9.972px" style="font-family:hcm;font-size:11px;fill:#afafaf;">12</text><text x="5.096px" y="54.18px" style="font-family:hcm;font-size:11px;fill:#afafaf;">8</text><text x="-0.404px" y="32.076px" style="font-family:hcm;font-size:11px;fill:#afafaf;">10</text><text x="5.096px" y="76.285px" style="font-family:hcm;font-size:11px;fill:#afafaf;">6</text><text x="5.096px" y="98.389px" style="font-family:hcm;font-size:11px;fill:#afafaf;">4</text><text x="5.096px" y="120.493px" style="font-family:hcm;font-size:11px;fill:#afafaf;">2</text></g><g><text x="12.163px" y="153.62px" style="font-family:hcm;font-size:11px;fill:#afafaf;">12am</text><text x="58.653px" y="153.62px" style="font-family:hcm;font-size:11px;fill:#afafaf;">3am</text><text x="110.655px" y="153.62px" style="font-family:hcm;font-size:11px;fill:#afafaf;">6am</text><text x="163.388px" y="153.62px" style="font-family:hcm;font-size:11px;fill:#afafaf;">9am</text><text x="213.781px" y="153.62px" style="font-family:hcm;font-size:11px;fill:#afafaf;">12pm</text><text x="268.599px" y="153.62px" style="font-family:hcm;font-size:11px;fill:#afafaf;">3pm</text><text x="321.741px" y="153.62px" style="font-family:hcm;font-size:11px;fill:#afafaf;">6pm</text><text x="374.785px" y="153.62px" style="font-family:hcm;font-size:11px;fill:#afafaf;">9pm</text><text x="415.75px" y="153.62px" style="font-family:hcm;font-size:11px;fill:#afafaf;">12am</text></g><g><path d="M13.268,94.899l2,0" style="fill:none;stroke-width:1.12px;stroke-linecap:square;stroke-linejoin:miter;stroke:#979797;"/><path d="M13.268,72.603l2,0" style="fill:none;stroke-width:1.12px;stroke-linecap:square;stroke-linejoin:miter;stroke:#979797;"/><path d="M13.268,6l2,0" style="fill:none;stroke-width:1.12px;stroke-linecap:square;stroke-linejoin:miter;stroke:#979797;"/><path d="M13.268,50.308l2,0" style="fill:none;stroke-width:1.12px;stroke-linecap:square;stroke-linejoin:miter;stroke:#979797;"/><path d="M13.268,28.013l2,0" style="fill:none;stroke-width:1.12px;stroke-linecap:square;stroke-linejoin:miter;stroke:#979797;"/><path d="M13.268,117.194l2,0" style="fill:none;stroke-width:1.12px;stroke-linecap:square;stroke-linejoin:miter;stroke:#979797;"/></g><g><path d="M120.604,139.918l0,3.004" style="fill:none;stroke-width:1px;stroke-linecap:square;stroke-linejoin:miter;stroke:#979797;"/><path d="M225.936,139.918l0,3.004" style="fill:none;stroke-width:1px;stroke-linecap:square;stroke-linejoin:miter;stroke:#979797;"/><path d="M173.27,139.918l0,3.004" style="fill:none;stroke-width:1px;stroke-linecap:square;stroke-linejoin:miter;stroke:#979797;"/><path d="M67.938,139.9l0,3.004" style="fill:none;stroke-width:1px;stroke-linecap:square;stroke-linejoin:miter;stroke:#979797;"/><path d="M32.828,139.9l0,1.282" style="fill:none;stroke-width:1px;stroke-linecap:square;stroke-linejoin:miter;stroke:#979797;"/><path d="M50.383,139.9l0,1.282" style="fill:none;stroke-width:1px;stroke-linecap:square;stroke-linejoin:miter;stroke:#979797;"/><path d="M85.494,139.9l0,1.282" style="fill:none;stroke-width:1px;stroke-linecap:square;stroke-linejoin:miter;stroke:#979797;"/><path d="M103.049,139.9l0,1.282" style="fill:none;stroke-width:1px;stroke-linecap:square;stroke-linejoin:miter;stroke:#979797;"/><path d="M138.159,139.9l0,1.282" style="fill:none;stroke-width:1px;stroke-linecap:square;stroke-linejoin:miter;stroke:#979797;"/><path d="M155.715,139.9l0,1.282" style="fill:none;stroke-width:1px;stroke-linecap:square;stroke-linejoin:miter;stroke:#979797;"/><path d="M190.825,139.9l0,1.282" style="fill:none;stroke-width:1px;stroke-linecap:square;stroke-linejoin:miter;stroke:#979797;"/><path d="M208.38,139.9l0,1.282" style="fill:none;stroke-width:1px;stroke-linecap:square;stroke-linejoin:miter;stroke:#979797;"/><path d="M243.491,139.9l0,1.282" style="fill:none;stroke-width:1px;stroke-linecap:square;stroke-linejoin:miter;stroke:#979797;"/><path d="M261.046,139.9l0,1.282" style="fill:none;stroke-width:1px;stroke-linecap:square;stroke-linejoin:miter;stroke:#979797;"/><path d="M296.156,139.9l0,1.282" style="fill:none;stroke-width:1px;stroke-linecap:square;stroke-linejoin:miter;stroke:#979797;"/><path d="M313.712,139.9l0,1.282" style="fill:none;stroke-width:1px;stroke-linecap:square;stroke-linejoin:miter;stroke:#979797;"/><path d="M348.822,139.9l0,1.282" style="fill:none;stroke-width:1px;stroke-linecap:square;stroke-linejoin:miter;stroke:#979797;"/><path d="M366.377,139.9l0,1.282" style="fill:none;stroke-width:1px;stroke-linecap:square;stroke-linejoin:miter;stroke:#979797;"/><path d="M419.043,139.9l0,1.282" style="fill:none;stroke-width:1px;stroke-linecap:square;stroke-linejoin:miter;stroke:#979797;"/><path d="M401.488,139.9l0,1.282" style="fill:none;stroke-width:1px;stroke-linecap:square;stroke-linejoin:miter;stroke:#979797;"/><path d="M15.5,140.271l0,3.004" style="fill:none;stroke-width:1px;stroke-linecap:square;stroke-linejoin:miter;stroke:#979797;"/><path d="M278.601,139.918l0,3.004" style="fill:none;stroke-width:1px;stroke-linecap:square;stroke-linejoin:miter;stroke:#979797;"/><path d="M383.933,139.918l0,3.004" style="fill:none;stroke-width:1px;stroke-linecap:square;stroke-linejoin:miter;stroke:#979797;"/><path d="M331.267,139.918l0,3.004" style="fill:none;stroke-width:1px;stroke-linecap:square;stroke-linejoin:miter;stroke:#979797;"/><path d="M436.5,139.918l0,3.004" style="fill:none;stroke-width:1px;stroke-linecap:square;stroke-linejoin:miter;stroke:#979797;"/></g><g><text x="294.666px" y="132.978px" style="font-family:hcm;font-size:13px;fill:#65d8f2;">air conditioner</text><text x="322.221px" y="43.532px" style="font-family:hcm;font-size:13px;fill:#eaba15;">price of electricity</text><text x="38.125px" y="131.68px" style="font-family:hcm;font-size:13px;fill:#fffff6;">elec car</text><text x="71.029px" y="92.315px" style="font-family:hcm;font-size:13px;fill:#0fa6d8;">dryer</text><g transform="matrix(1,4.82947e-15,-4.82947e-15,1,69.5501,59.5819)"><text x="1.479px" y="0px" style="font-family:hcm;font-size:13px;fill:#7cd3f5;">hot </text><text x="1.479px" y="12px" style="font-family:hcm;font-size:13px;fill:#7cd3f5;">water</text></g></g><g><g transform="matrix(1,0,0,1,95.4351,9.60745)"><text x="0px" y="0px" style="font-family:hcm;font-size:11px;fill:#7a7a7a;">signifcant demand </text><text x="0px" y="11px" style="font-family:hcm;font-size:11px;fill:#7a7a7a;">moved to off-peak </text><text x="0px" y="22px" style="font-family:hcm;font-size:11px;fill:#7a7a7a;">hours</text></g><g transform="matrix(1,0,0,1,199.295,9.60745)"><text x="0px" y="0px" style="font-family:hcm;font-size:11px;fill:#7a7a7a;">other loads shifted </text><text x="0px" y="11px" style="font-family:hcm;font-size:11px;fill:#7a7a7a;">to avoid busy times</text></g><path d="M253.5,25.431l0,42.426" style="fill:none;stroke-width:1px;stroke-linecap:butt;stroke:#919191;"/><path d="M218.5,25.431l0,42.426" style="fill:none;stroke-width:1px;stroke-linecap:butt;stroke:#919191;"/><path d="M91.588,17.5l-27.092,0" style="fill:none;stroke-width:1px;stroke-linecap:butt;stroke:#919191;"/></g></g></svg>