<?xml version="1.0" standalone="no"?><!DOCTYPE svg PUBLIC "-//W3C//DTD SVG 1.1//EN" "http://www.w3.org/Graphics/SVG/1.1/DTD/svg11.dtd"><svg width="100%" height="100%" viewBox="0 0 100 100" version="1.1" xmlns="http://www.w3.org/2000/svg" xmlns:xlink="http://www.w3.org/1999/xlink" xml:space="preserve" style="fill-rule:evenodd;clip-rule:evenodd;stroke-linejoin:round;stroke-miterlimit:1.41421;"><g><path d="M23.076,79.044c-5.737,0 -10.405,4.668 -10.405,10.408c0,5.737 4.668,10.405 10.405,10.405c5.738,0 10.407,-4.667 10.407,-10.405c0,-5.74 -4.669,-10.408 -10.407,-10.408Z" style="fill:#69aac8;fill-rule:nonzero;"/><path d="M80.237,79.022c-5.743,0 -10.416,4.673 -10.416,10.418c0,5.744 4.671,10.417 10.416,10.417c5.745,0 10.417,-4.672 10.417,-10.417c-0.001,-5.745 -4.673,-10.418 -10.417,-10.418Z" style="fill:#69aac8;fill-rule:nonzero;"/><path d="M95.92,68.358l-15.313,-3.429c-4.007,-0.892 -8.412,-4.528 -10.082,-8.276l-4.811,-11.01c-0.966,-2.168 -3.873,-4.253 -6.247,-4.253l-26.512,0c-2.479,0 -5.766,2.052 -7.033,4.183l-6.829,11.572c-1.99,3.345 -6.402,7.084 -10.046,8.455l-4.769,1.818c-2.168,0.815 -4.069,3.584 -4.069,5.899l0,10.192c0,1.975 1.606,3.907 3.58,3.907l5.771,0c0.648,-6.926 6.488,-12.366 13.58,-12.366c7.093,0 12.933,5.44 13.582,12.366l29.954,0c0.648,-6.926 6.49,-12.366 13.581,-12.366c7.092,0 12.935,5.44 13.584,12.366l2.648,0c1.974,0 3.236,-1.932 3.236,-3.907l0,-10.192c0,-2.17 -1.685,-4.488 -3.805,-4.959Z" style="fill:#69aac8;fill-rule:nonzero;"/></g></svg>