<?xml version="1.0" standalone="no"?><!DOCTYPE svg PUBLIC "-//W3C//DTD SVG 1.1//EN" "http://www.w3.org/Graphics/SVG/1.1/DTD/svg11.dtd"><svg width="100%" height="100%" viewBox="0 0 100 100" version="1.1" xmlns="http://www.w3.org/2000/svg" xmlns:xlink="http://www.w3.org/1999/xlink" xml:space="preserve" style="fill-rule:evenodd;clip-rule:evenodd;stroke-linejoin:round;stroke-miterlimit:1.41421;"><path d="M10.805,56.835l0,40.218c0,0.734 0.294,1.458 0.814,1.976c0.52,0.518 1.24,0.813 1.978,0.813l22.483,0l0,-29.531c0,-0.737 0.292,-1.461 0.814,-1.978c0.518,-0.521 1.24,-0.819 1.971,-0.819l19.203,0c0.737,0 1.451,0.299 1.974,0.819c0.521,0.517 0.814,1.24 0.814,1.978l0,29.531l22.487,0c0.741,0 1.446,-0.285 1.973,-0.813c0.521,-0.527 0.814,-1.231 0.814,-1.976l0,-40.27l-38.069,-29.599l-37.256,29.651Z" style="fill:#69aac8;fill-rule:nonzero;"/><path d="M94.575,44.378l-42.704,-32.848c-2.002,-1.542 -4.806,-1.542 -6.811,0l-22.875,17.596l0,-8.885l-11.17,0l0,17.474l-8.653,6.66c-2.442,1.881 -2.901,5.388 -1.02,7.829c1.096,1.429 2.754,2.179 4.425,2.179c0.612,0 1.226,-0.103 1.819,-0.306l39.162,-31.16c0.754,-0.602 1.814,-0.608 2.57,-0.02l40.119,31.191c2.188,0.711 4.674,0.046 6.159,-1.884c1.882,-2.441 1.422,-5.947 -1.021,-7.826Z" style="fill:#69aac8;fill-rule:nonzero;"/></svg>