<svg width="300" height="196" viewBox="0 0 300 196" version="1.1" xmlns="http://www.w3.org/2000/svg" xmlns:xlink="http://www.w3.org/1999/xlink" xml:space="preserve" style="fill-rule:evenodd;clip-rule:evenodd;stroke-linecap:square;stroke-miterlimit:1.41421;"><g><path d="M17.096,150.61l279.325,0.077M17.096,121.61l279.325,0.077M17.096,92.648l279.325,0.077M17.096,63.763l279.325,0.076M17.096,34.686l279.325,0.077M17.096,5.725l279.325,0.076" style="fill:none;stroke-width:1px;stroke:#000;stroke-opacity:0.0235294;"/><g><path d="M16.5,5.5l0,174" style="fill:none;stroke-width:1px;stroke:#979797;"/><g><path d="M14.666,150.5l1.638,0" style="fill:none;stroke-width:1px;stroke:#979797;"/><path d="M14.666,121.5l1.638,0" style="fill:none;stroke-width:1px;stroke:#979797;"/><path d="M14.666,92.5l1.638,0" style="fill:none;stroke-width:1px;stroke:#979797;"/><path d="M14.666,63.5l1.638,0" style="fill:none;stroke-width:1px;stroke:#979797;"/><path d="M14.666,34.5l1.638,0" style="fill:none;stroke-width:1px;stroke:#979797;"/><path d="M14.666,5.5l1.638,0" style="fill:none;stroke-width:1px;stroke:#979797;"/></g><g><path d="M23.327,179.859l0,1.262" style="fill:none;stroke-width:1px;stroke:#979797;"/><path d="M132.551,179.859l0,1.262" style="fill:none;stroke-width:1px;stroke:#979797;"/><path d="M77.939,179.866l0,1.262" style="fill:none;stroke-width:1px;stroke:#979797;"/><path d="M187.163,180.312l0,3.004" style="fill:none;stroke-width:1px;stroke:#979797;"/><path d="M50.633,180.295l0,3.004" style="fill:none;stroke-width:1px;stroke:#979797;"/><path d="M16.5,180.295l0,3.004" style="fill:none;stroke-width:1px;stroke:#979797;"/><path d="M159.857,179.859l0,1.262" style="fill:none;stroke-width:1px;stroke:#979797;"/><path d="M105.245,179.866l0,1.262" style="fill:none;stroke-width:1px;stroke:#979797;"/><path d="M214.469,179.866l0,1.262" style="fill:none;stroke-width:1px;stroke:#979797;"/><path d="M255.428,180.312l0,3.004" style="fill:none;stroke-width:1px;stroke:#979797;"/><path d="M30.153,179.859l0,1.262" style="fill:none;stroke-width:1px;stroke:#979797;"/><path d="M139.377,179.859l0,1.262" style="fill:none;stroke-width:1px;stroke:#979797;"/><path d="M84.765,180.312l0,3.004" style="fill:none;stroke-width:1px;stroke:#979797;"/><path d="M193.99,179.866l0,1.262" style="fill:none;stroke-width:1px;stroke:#979797;"/><path d="M57.459,179.859l0,1.262" style="fill:none;stroke-width:1px;stroke:#979797;"/><path d="M166.683,179.859l0,1.262" style="fill:none;stroke-width:1px;stroke:#979797;"/><path d="M112.071,179.866l0,1.262" style="fill:none;stroke-width:1px;stroke:#979797;"/><path d="M221.296,180.312l0,3.004" style="fill:none;stroke-width:1px;stroke:#979797;"/><path d="M262.255,179.866l0,1.262" style="fill:none;stroke-width:1px;stroke:#979797;"/><path d="M36.98,179.859l0,1.262" style="fill:none;stroke-width:1px;stroke:#979797;"/><path d="M146.204,179.859l0,1.262" style="fill:none;stroke-width:1px;stroke:#979797;"/><path d="M91.592,179.866l0,1.262" style="fill:none;stroke-width:1px;stroke:#979797;"/><path d="M200.816,179.866l0,1.262" style="fill:none;stroke-width:1px;stroke:#979797;"/><path d="M241.775,179.866l0,1.262" style="fill:none;stroke-width:1px;stroke:#979797;"/><path d="M64.286,179.859l0,1.262" style="fill:none;stroke-width:1px;stroke:#979797;"/><path d="M173.51,179.859l0,1.262" style="fill:none;stroke-width:1px;stroke:#979797;"/><path d="M118.898,180.312l0,3.004" style="fill:none;stroke-width:1px;stroke:#979797;"/><path d="M228.122,179.866l0,1.262" style="fill:none;stroke-width:1px;stroke:#979797;"/><path d="M269.081,179.866l0,1.262" style="fill:none;stroke-width:1px;stroke:#979797;"/><path d="M43.806,179.859l0,1.262" style="fill:none;stroke-width:1px;stroke:#979797;"/><path d="M153.03,180.295l0,3.004" style="fill:none;stroke-width:1px;stroke:#979797;"/><path d="M98.418,179.866l0,1.262" style="fill:none;stroke-width:1px;stroke:#979797;"/><path d="M207.643,179.866l0,1.262" style="fill:none;stroke-width:1px;stroke:#979797;"/><path d="M248.602,179.866l0,1.262" style="fill:none;stroke-width:1px;stroke:#979797;"/><path d="M71.112,179.859l0,1.262" style="fill:none;stroke-width:1px;stroke:#979797;"/><path d="M180.336,179.859l0,1.262" style="fill:none;stroke-width:1px;stroke:#979797;"/><path d="M125.724,179.866l0,1.262" style="fill:none;stroke-width:1px;stroke:#979797;"/><path d="M234.949,179.866l0,1.262" style="fill:none;stroke-width:1px;stroke:#979797;"/><path d="M275.908,179.866l0,1.262" style="fill:none;stroke-width:1px;stroke:#979797;"/><path d="M282.734,179.866l0,1.262" style="fill:none;stroke-width:1px;stroke:#979797;"/><path d="M289.561,180.312l0,3.004" style="fill:none;stroke-width:1px;stroke:#979797;"/><path d="M296.387,179.866l0,1.262" style="fill:none;stroke-width:1px;stroke:#979797;"/></g><path d="M16.961,128.222l7.451,-1.788l6.488,-0.778l6.662,-1.9l6.841,-4.306l6.819,-2.731l6.786,-5.491l6.785,-3.41l6.841,-5.545l6.852,-3.327l6.957,-4.502l6.981,-3.632l6.719,-4.47l6.812,-2.72l6.747,7.406l6.804,-9.155l6.802,-3.475l6.934,-0.125l6.789,0.247l6.684,-2.911l7.087,3.625l6.623,-1.765l6.958,4.53l6.973,0l6.584,-4.431l6.944,-1.654l6.79,2.407l6.851,-2.61l6.883,-3.732l6.66,0.188l6.807,-1.724l6.994,5.36l6.884,-0.178l6.548,0.124l6.947,0.093l7.102,-0.186l6.794,-2.694l6.792,-2.625l6.676,2.827l6.544,-1.804l7.012,-1.975l6.89,6.196" style="fill:none;stroke-width:3.0px;stroke-linecap:butt;stroke:#7cd3f5;"/><path d="M17.084,126.626l6.902,-2.735l7.169,-2.749l6.474,-3.491l6.465,-3.501l7.486,-3.638l6.513,-5.342l6.898,-3.655l6.87,-6.891l6.87,-7.296l6.621,-4.558l7.177,-4.471l6.427,-6.191l6.81,-7.033l7.154,1.936l6.567,-1.707l6.911,-6.484l6.868,-5.183l6.725,-2.752l7.011,-1.747l6.889,-0.964l6.765,-1.832l6.561,5.367l7.022,-2.378l6.83,-7.604l6.832,-0.628l6.666,-1.842l6.862,-3.58l6.973,-5.224l6.681,-2.799l6.769,-2.857l6.964,-0.665l6.938,1.941l6.852,-3.737l6.996,-2.592l6.692,-2.884l6.89,-3.252l6.803,-0.129l6.788,-4.507l6.465,-1.716l7.298,-4.45l6.565,2.798" style="fill:none;stroke-width:3.0px;stroke-linecap:butt;stroke:#1b6fb5;"/><path d="M16.5,179.5l280,0" style="fill:none;stroke-width:1px;stroke:#979797;"/></g><g><g><text x="7.5px" y="153.573px" style="font-family:hcm;font-size:11px;fill:#afafaf;">2</text></g><g><text x="7.5px" y="125.003px" style="font-family:hcm;font-size:11px;fill:#afafaf;">4</text></g><g><text x="7.5px" y="96.661px" style="font-family:hcm;font-size:11px;fill:#afafaf;">6</text></g><g><text x="7.5px" y="67.32px" style="font-family:hcm;font-size:11px;fill:#afafaf;">8</text></g><g><text x="2px" y="38.75px" style="font-family:hcm;font-size:11px;fill:#afafaf;">10</text></g><g><text x="2px" y="9.18px" style="font-family:hcm;font-size:11px;fill:#afafaf;">12</text></g></g><g><g><text x="4.91px" y="193.893px" style="font-family:hcm;font-size:11px;fill:#afafaf;">1960</text></g><g><text x="39.896px" y="193.893px" style="font-family:hcm;font-size:11px;fill:#afafaf;">1965</text></g><g><text x="73.213px" y="193.893px" style="font-family:hcm;font-size:11px;fill:#afafaf;">1970</text></g><g><text x="107.968px" y="193.893px" style="font-family:hcm;font-size:11px;fill:#afafaf;">1975</text></g><g><text x="142.102px" y="193.893px" style="font-family:hcm;font-size:11px;fill:#afafaf;">1980</text></g><g><text x="175.858px" y="193.893px" style="font-family:hcm;font-size:11px;fill:#afafaf;">1985</text></g><g><text x="210.614px" y="193.893px" style="font-family:hcm;font-size:11px;fill:#afafaf;">1990</text></g><g><text x="244.059px" y="193.893px" style="font-family:hcm;font-size:11px;fill:#afafaf;">1995</text></g><g><text x="278.503px" y="193.893px" style="font-family:hcm;font-size:11px;fill:#afafaf;">2000</text></g></g><g><g><text x="177.393px" y="32.028px" style="font-family:hcb;font-size:13px;fill:#366dcb;">U.S.</text></g><g><text x="220.144px" y="91.034px" style="font-family:hcb;font-size:13px;fill:#7cd3f5;">California</text></g><g><text x="54.981px" y="136.636px" style="font-family:hcm;font-size:11px;fill:#7a7a7a;">Art Rosenfeld</text><text x="39.421px" y="147.636px" style="font-family:hcm;font-size:11px;fill:#7a7a7a;">gets interested in </text><text x="40.962px" y="158.636px" style="font-family:hcm;font-size:11px;fill:#7a7a7a;">energy efficiency</text></g><g><text x="124.657px" y="136.636px" style="font-family:hcm;font-size:11px;fill:#7a7a7a;">California starts rolling </text><text x="124.657px" y="147.636px" style="font-family:hcm;font-size:11px;fill:#7a7a7a;">out efficiency measures</text></g></g><path d="M112.5,124.065l0,-27.049" style="fill:none;stroke-width:1px;stroke:#979797;"/><path d="M126.5,124.5l0,-42" style="fill:none;stroke-width:1px;stroke:#979797;"/></g></svg>