<svg width="300" height="196" viewBox="0 0 300 196" version="1.1" xmlns="http://www.w3.org/2000/svg" xmlns:xlink="http://www.w3.org/1999/xlink" xml:space="preserve" style="fill-rule:evenodd;clip-rule:evenodd;stroke-linejoin:round;stroke-miterlimit:1.41421;"><g><g><path d="M16.997,107.861l6.227,-3.224l5.812,-0.408l5.641,-6.032l5.937,-2.509l5.819,-7.357l5.727,-0.048l5.522,-4.264l5.776,-6.937l5.522,-3.951l5.845,-1.816l5.609,-2.495l5.356,-5.305l6.178,-2.361l6.023,-5.76l5.399,-4.317l5.695,-3.727l5.362,1.952l5.974,-6.02l5.69,-5.808l6.06,-5.359l5.652,-1.685l5.232,-1.503l6.054,-0.408l5.647,-3.455l5.646,-3.814l5.664,3.176l6.264,-3.904l22.827,-12.834l11.077,1.13l5.727,-2.319l6.184,-0.775l5.35,-2.903l5.362,-1.592l5.812,8.623l5.776,-5.216l5.813,1.768l5.646,-2.046l5.647,1.911l6.023,-4.714l5.152,5.081l5.936,0.809l5.609,-3.081l5.603,0.728l5.888,0.686l5.646,-3.318" style="fill:none;stroke-width:1px;stroke:#ded4b7;"/></g><path d="M16.944,148.863l6.299,-0.077l11.166,0l6.132,-2.762l5.26,-2.449l5.901,-3.351l5.71,-4.705l5.616,-6.919l5.782,-9.53l5.71,-1.907l5.616,-3.811l5.711,-4.629l5.9,-8.365l5.704,-9.053l5.705,-6.079l5.735,-10.214l5.782,-6.838l5.58,-9.875l5.851,-9.575l5.896,-5.375l5.462,-3.853l5.858,0.042l5.895,-1.942l5.481,-3.923l6.05,-4.32l5.431,-4.82l5.409,-3.452l23.086,32.097l11.611,15.401l5.348,7.584l5.984,-0.239l5.621,2.839l5.349,2.109l6.003,6.955l5.652,-1.515l5.669,8.592l5.621,0.962l5.586,2.56l5.823,1.836l5.575,4.734l5.534,3.462l5.834,13.793l5.68,0.914l5.354,0.157l5.906,-1.242" style="fill:none;stroke-width:3.0px;stroke:#7cd3f5;"/><path d="M16.5,5.5l0,174" style="fill:none;stroke-width:1px;stroke-linecap:square;stroke-linejoin:miter;stroke:#979797;"/><path d="M16.5,179.5l280,0" style="fill:none;stroke-width:1px;stroke-linecap:square;stroke-linejoin:miter;stroke:#979797;"/><g><text x="188.373px" y="29.437px" style="font-family:hcm;font-size:11px;fill:#7a7a7a;">1978 CA standard</text><g transform="matrix(0.822766,-0.568381,0.568381,0.822766,-39.399,42.296)"><text x="48.121px" y="84.323px" style="font-family:hcm;font-size:11px;fill:#ded4b7;">avg fridge size</text></g><g transform="matrix(1,-7.16094e-15,7.16094e-15,1,64.2792,119.493)"><text x="28.708px" y="0px" style="font-family:hcm;font-size:11px;fill:#7cd3f5;">average  </text><text x="5.188px" y="11px" style="font-family:hcm;font-size:11px;fill:#7cd3f5;">fridge energy  </text><text x="5.462px" y="22px" style="font-family:hcm;font-size:11px;fill:#7cd3f5;">consumption</text></g><text x="205.596px" y="46.228px" style="font-family:hcm;font-size:11px;fill:#7a7a7a;">1980 CA standard</text><text x="219.89px" y="63.165px" style="font-family:hcm;font-size:11px;fill:#7a7a7a;">1987 CA standard</text><text x="176.491px" y="129.319px" style="font-family:hcm;font-size:11px;fill:#7a7a7a;">1990 NAECA standard</text><path d="M268.5,109.68l0,10.575" style="fill:none;stroke-width:1px;stroke:#919191;"/><path d="M279.5,125.68l0,12.971" style="fill:none;stroke-width:1px;stroke:#919191;"/><path d="M194.5,32.259l0,17.505" style="fill:none;stroke-width:1px;stroke:#919191;"/><path d="M251.546,65.793l0,27.401" style="fill:none;stroke-width:1px;stroke:#919191;"/><path d="M211.5,48.138l0,24.706" style="fill:none;stroke-width:1px;stroke:#919191;"/><text x="213.643px" y="148.963px" style="font-family:hcm;font-size:11px;fill:#7a7a7a;">1993 DOE standard</text></g><g><path d="M17.096,144.67l279.325,0.091M17.096,109.863l279.325,0.092M17.096,75.102l279.325,0.092M17.096,40.433l279.325,0.091M17.096,5.534l279.325,0.092" style="fill:none;stroke-width:1px;stroke-linecap:round;stroke-miterlimit:10;stroke:#000;stroke-opacity:0.0235294;"/></g><g><text x="0.417px" y="147.405px" style="font-family:hcm;font-size:11px;fill:#afafaf;">0.4</text><text x="0.417px" y="112.998px" style="font-family:hcm;font-size:11px;fill:#afafaf;">0.8</text><text x="-0.235px" y="78.591px" style="font-family:hcm;font-size:11px;fill:#afafaf;">1.2</text><text x="-0.235px" y="44.184px" style="font-family:hcm;font-size:11px;fill:#afafaf;">1.6</text><text x="-0.235px" y="9.777px" style="font-family:hcm;font-size:11px;fill:#afafaf;">2.0</text></g><g><text x="22.188px" y="193.893px" style="font-family:hcm;font-size:11px;fill:#afafaf;">1950</text><text x="79.26px" y="193.893px" style="font-family:hcm;font-size:11px;fill:#afafaf;">1960</text><text x="136.507px" y="193.893px" style="font-family:hcm;font-size:11px;fill:#afafaf;">1970</text><text x="194.711px" y="193.893px" style="font-family:hcm;font-size:11px;fill:#afafaf;">1980</text><text x="251.705px" y="193.893px" style="font-family:hcm;font-size:11px;fill:#afafaf;">1990</text></g><g><path d="M14.666,109.929l1.638,0" style="fill:none;stroke-width:1px;stroke-linecap:square;stroke-linejoin:miter;stroke:#979797;"/><path d="M14.666,75.12l1.638,0" style="fill:none;stroke-width:1px;stroke-linecap:square;stroke-linejoin:miter;stroke:#979797;"/><path d="M14.666,40.31l1.638,0" style="fill:none;stroke-width:1px;stroke-linecap:square;stroke-linejoin:miter;stroke:#979797;"/><path d="M14.666,144.739l1.638,0" style="fill:none;stroke-width:1px;stroke-linecap:square;stroke-linejoin:miter;stroke:#979797;"/><path d="M14.666,5.5l1.638,0" style="fill:none;stroke-width:1px;stroke-linecap:square;stroke-linejoin:miter;stroke:#979797;"/></g><g><path d="M22.318,179.859l0,1.262" style="fill:none;stroke-width:1px;stroke-linecap:square;stroke-linejoin:miter;stroke:#979797;"/><path d="M62.305,180.312l0,3.004" style="fill:none;stroke-width:1px;stroke-linecap:square;stroke-linejoin:miter;stroke:#979797;"/><path d="M119.43,180.312l0,3.004" style="fill:none;stroke-width:1px;stroke-linecap:square;stroke-linejoin:miter;stroke:#979797;"/><path d="M176.554,180.312l0,3.004" style="fill:none;stroke-width:1px;stroke-linecap:square;stroke-linejoin:miter;stroke:#979797;"/><path d="M233.679,180.312l0,3.004" style="fill:none;stroke-width:1px;stroke-linecap:square;stroke-linejoin:miter;stroke:#979797;"/><path d="M290.804,180.312l0,3.004" style="fill:none;stroke-width:1px;stroke-linecap:square;stroke-linejoin:miter;stroke:#979797;"/><path d="M45.168,179.859l0,1.262" style="fill:none;stroke-width:1px;stroke-linecap:square;stroke-linejoin:miter;stroke:#979797;"/><path d="M102.292,179.859l0,1.262" style="fill:none;stroke-width:1px;stroke-linecap:square;stroke-linejoin:miter;stroke:#979797;"/><path d="M159.417,179.859l0,1.262" style="fill:none;stroke-width:1px;stroke-linecap:square;stroke-linejoin:miter;stroke:#979797;"/><path d="M216.542,179.859l0,1.262" style="fill:none;stroke-width:1px;stroke-linecap:square;stroke-linejoin:miter;stroke:#979797;"/><path d="M273.666,179.859l0,1.262" style="fill:none;stroke-width:1px;stroke-linecap:square;stroke-linejoin:miter;stroke:#979797;"/><path d="M28.03,179.859l0,1.262" style="fill:none;stroke-width:1px;stroke-linecap:square;stroke-linejoin:miter;stroke:#979797;"/><path d="M73.73,179.866l0,1.262" style="fill:none;stroke-width:1px;stroke-linecap:square;stroke-linejoin:miter;stroke:#979797;"/><path d="M130.855,179.866l0,1.262" style="fill:none;stroke-width:1px;stroke-linecap:square;stroke-linejoin:miter;stroke:#979797;"/><path d="M187.979,179.866l0,1.262" style="fill:none;stroke-width:1px;stroke-linecap:square;stroke-linejoin:miter;stroke:#979797;"/><path d="M245.104,179.866l0,1.262" style="fill:none;stroke-width:1px;stroke-linecap:square;stroke-linejoin:miter;stroke:#979797;"/><path d="M50.88,179.859l0,1.262" style="fill:none;stroke-width:1px;stroke-linecap:square;stroke-linejoin:miter;stroke:#979797;"/><path d="M108.005,179.859l0,1.262" style="fill:none;stroke-width:1px;stroke-linecap:square;stroke-linejoin:miter;stroke:#979797;"/><path d="M165.129,179.859l0,1.262" style="fill:none;stroke-width:1px;stroke-linecap:square;stroke-linejoin:miter;stroke:#979797;"/><path d="M222.254,179.859l0,1.262" style="fill:none;stroke-width:1px;stroke-linecap:square;stroke-linejoin:miter;stroke:#979797;"/><path d="M279.379,179.859l0,1.262" style="fill:none;stroke-width:1px;stroke-linecap:square;stroke-linejoin:miter;stroke:#979797;"/><path d="M90.867,180.312l0,3.004" style="fill:none;stroke-width:1px;stroke-linecap:square;stroke-linejoin:miter;stroke:#979797;"/><path d="M147.992,180.312l0,3.004" style="fill:none;stroke-width:1px;stroke-linecap:square;stroke-linejoin:miter;stroke:#979797;"/><path d="M205.117,180.312l0,3.004" style="fill:none;stroke-width:1px;stroke-linecap:square;stroke-linejoin:miter;stroke:#979797;"/><path d="M262.241,180.312l0,3.004" style="fill:none;stroke-width:1px;stroke-linecap:square;stroke-linejoin:miter;stroke:#979797;"/><path d="M39.455,179.859l0,1.262" style="fill:none;stroke-width:1px;stroke-linecap:square;stroke-linejoin:miter;stroke:#979797;"/><path d="M96.58,179.859l0,1.262" style="fill:none;stroke-width:1px;stroke-linecap:square;stroke-linejoin:miter;stroke:#979797;"/><path d="M153.705,179.859l0,1.262" style="fill:none;stroke-width:1px;stroke-linecap:square;stroke-linejoin:miter;stroke:#979797;"/><path d="M210.829,179.859l0,1.262" style="fill:none;stroke-width:1px;stroke-linecap:square;stroke-linejoin:miter;stroke:#979797;"/><path d="M267.954,179.859l0,1.262" style="fill:none;stroke-width:1px;stroke-linecap:square;stroke-linejoin:miter;stroke:#979797;"/><path d="M79.442,179.866l0,1.262" style="fill:none;stroke-width:1px;stroke-linecap:square;stroke-linejoin:miter;stroke:#979797;"/><path d="M136.567,179.866l0,1.262" style="fill:none;stroke-width:1px;stroke-linecap:square;stroke-linejoin:miter;stroke:#979797;"/><path d="M193.692,179.866l0,1.262" style="fill:none;stroke-width:1px;stroke-linecap:square;stroke-linejoin:miter;stroke:#979797;"/><path d="M250.817,179.866l0,1.262" style="fill:none;stroke-width:1px;stroke-linecap:square;stroke-linejoin:miter;stroke:#979797;"/><path d="M56.592,179.859l0,1.262" style="fill:none;stroke-width:1px;stroke-linecap:square;stroke-linejoin:miter;stroke:#979797;"/><path d="M113.717,179.859l0,1.262" style="fill:none;stroke-width:1px;stroke-linecap:square;stroke-linejoin:miter;stroke:#979797;"/><path d="M170.842,179.859l0,1.262" style="fill:none;stroke-width:1px;stroke-linecap:square;stroke-linejoin:miter;stroke:#979797;"/><path d="M227.967,179.859l0,1.262" style="fill:none;stroke-width:1px;stroke-linecap:square;stroke-linejoin:miter;stroke:#979797;"/><path d="M285.091,179.859l0,1.262" style="fill:none;stroke-width:1px;stroke-linecap:square;stroke-linejoin:miter;stroke:#979797;"/><path d="M33.743,180.295l0,3.004" style="fill:none;stroke-width:1px;stroke-linecap:square;stroke-linejoin:miter;stroke:#979797;"/><path d="M85.155,179.866l0,1.262" style="fill:none;stroke-width:1px;stroke-linecap:square;stroke-linejoin:miter;stroke:#979797;"/><path d="M142.28,179.866l0,1.262" style="fill:none;stroke-width:1px;stroke-linecap:square;stroke-linejoin:miter;stroke:#979797;"/><path d="M199.404,179.866l0,1.262" style="fill:none;stroke-width:1px;stroke-linecap:square;stroke-linejoin:miter;stroke:#979797;"/><path d="M256.529,179.866l0,1.262" style="fill:none;stroke-width:1px;stroke-linecap:square;stroke-linejoin:miter;stroke:#979797;"/><path d="M68.017,179.859l0,1.262" style="fill:none;stroke-width:1px;stroke-linecap:square;stroke-linejoin:miter;stroke:#979797;"/><path d="M125.142,179.859l0,1.262" style="fill:none;stroke-width:1px;stroke-linecap:square;stroke-linejoin:miter;stroke:#979797;"/><path d="M182.267,179.859l0,1.262" style="fill:none;stroke-width:1px;stroke-linecap:square;stroke-linejoin:miter;stroke:#979797;"/><path d="M239.392,179.859l0,1.262" style="fill:none;stroke-width:1px;stroke-linecap:square;stroke-linejoin:miter;stroke:#979797;"/><path d="M296.516,179.859l0,1.262" style="fill:none;stroke-width:1px;stroke-linecap:square;stroke-linejoin:miter;stroke:#979797;"/><path d="M16.605,179.866l0,1.262" style="fill:none;stroke-width:1px;stroke-linecap:square;stroke-linejoin:miter;stroke:#979797;"/></g></g></svg>