<svg width="300" height="196" viewBox="0 0 300 196" version="1.1" xmlns="http://www.w3.org/2000/svg" xmlns:xlink="http://www.w3.org/1999/xlink" xml:space="preserve" style="fill-rule:evenodd;clip-rule:evenodd;stroke-linecap:square;stroke-miterlimit:1.41421;"><g><path d="M16.5,5.5l0,174" style="fill:none;stroke-width:1px;stroke:#979797;"/><path d="M16.5,179.5l280,0" style="fill:none;stroke-width:1px;stroke:#979797;"/><g><path d="M17.096,179.379l33.52,0l11.193,-0.065l11.164,-0.262l11.164,-0.654l11.192,-0.982l11.135,-1.57l11.221,-1.996l11.164,-2.061l11.135,-2.224l11.193,-2.749l11.164,-2.617l11.22,-2.617l11.136,-2.421l11.192,-2.356l11.164,-2.65l11.164,-2.421l11.192,-3.206l11.192,-2.977l11.108,-2.977l11.22,-3.043l11.193,-2.911l11.107,-3.01l11.192,-2.977l0,48.746l-279.325,0" style="fill:#177797;"/><path d="M17.096,179.379l0,-0.261l11.221,-0.458l11.107,-0.622l11.192,-1.799l11.193,-2.094l11.164,-1.178l11.164,-1.309l11.192,-1.243l11.135,-2.126l11.221,-3.697l11.164,-3.861l11.135,-3.893l11.193,-4.547l11.164,-5.006l11.22,-4.678l11.136,-3.893l11.192,-3.501l11.164,-4.286l11.164,-3.271l11.192,-5.17l11.192,-5.07l11.108,-4.81l11.22,-5.169l11.193,-5.169l11.107,-5.202l11.192,-5.267l0,38.801l-11.192,2.977l-11.107,2.977l-11.193,2.945l-11.22,3.042l-11.108,2.977l-11.192,2.978l-11.192,3.206l-11.164,2.421l-11.164,2.65l-11.192,2.355l-11.136,2.421l-11.22,2.618l-11.164,2.649l-11.193,2.749l-11.135,2.224l-11.164,2.061l-11.221,1.996l-11.135,1.57l-11.192,0.982l-11.164,0.654l-11.164,0.262l-11.193,0.065l-33.52,0" style="fill:#0fa6d8;"/><path d="M17.096,179.118l11.221,-1.08l11.107,-3.206l11.192,-5.529l11.193,-7.067l11.164,-7.59l11.164,-9.193l11.192,-9.16l11.135,-10.11l11.221,-11.974l11.164,-11.156l11.135,-9.324l11.193,-5.987l11.164,-5.038l11.22,-4.482l11.136,-4.417l11.192,-6.248l11.164,-7.558l11.164,-7.263l11.192,-9.585l11.192,-5.987l11.108,-6.315l11.22,-6.052l11.193,-5.333l11.107,-4.744l11.192,-6.019l0,83.098l-11.192,5.3l-11.107,5.169l-11.193,5.202l-11.22,5.136l-11.108,4.81l-11.192,5.07l-11.192,5.202l-11.164,3.272l-11.164,4.253l-11.192,3.501l-11.136,3.893l-11.22,4.711l-11.164,4.973l-11.193,4.547l-11.135,3.893l-11.164,3.861l-11.221,3.697l-11.135,2.126l-11.192,1.243l-11.164,1.309l-11.164,1.178l-11.193,2.094l-11.192,1.799l-11.107,0.622l-11.221,0.458" style="fill:#7cd3f5;"/><path d="M17.096,154.581l279.325,0.065M17.096,129.749l279.325,0.066M17.096,104.951l279.325,0.065M17.096,80.218l279.325,0.065M17.096,55.321l279.325,0.065M17.096,30.522l279.325,0.066M17.096,5.724l279.325,0.065" style="fill:none;stroke-width:1.0px;stroke-linecap:round;stroke-linejoin:round;stroke-miterlimit:10;stroke:#000;stroke-opacity:0.0235294;"/></g><g><text x="7.5px" y="159.149px" style="font-family:hcm;font-size:11px;fill:#afafaf;">5</text><text x="2px" y="134.146px" style="font-family:hcm;font-size:11px;fill:#afafaf;">10</text><text x="1.348px" y="108.83px" style="font-family:hcm;font-size:11px;fill:#afafaf;">15</text><text x="1.348px" y="83.827px" style="font-family:hcm;font-size:11px;fill:#afafaf;">20</text><text x="1.348px" y="58.824px" style="font-family:hcm;font-size:11px;fill:#afafaf;">25</text><text x="1.348px" y="33.821px" style="font-family:hcm;font-size:11px;fill:#afafaf;">30</text><text x="1.348px" y="8.819px" style="font-family:hcm;font-size:11px;fill:#afafaf;">35</text></g><g><text x="5.588px" y="193.893px" style="font-family:hcm;font-size:11px;fill:#afafaf;">1976</text><text x="49.755px" y="193.893px" style="font-family:hcm;font-size:11px;fill:#afafaf;">1980</text><text x="106.374px" y="193.893px" style="font-family:hcm;font-size:11px;fill:#afafaf;">1985</text><text x="162.064px" y="193.893px" style="font-family:hcm;font-size:11px;fill:#afafaf;">1990</text><text x="218.181px" y="193.893px" style="font-family:hcm;font-size:11px;fill:#afafaf;">1995</text><text x="274.34px" y="193.893px" style="font-family:hcm;font-size:11px;fill:#afafaf;">2000</text></g><g><g transform="matrix(1,0,0,1,246.334,71.2875)"><text x="-23.461px" y="0px" style="font-family:hcm;font-size:13px;fill:#fff;">savings from </text><text x="-39.349px" y="13px" style="font-family:hcm;font-size:13px;fill:#fff;">utility programs</text></g><g transform="matrix(0.953592,-0.301101,0.301101,0.953592,238.074,129.839)"><text x="8.639px" y="0px" style="font-family:hcm;font-size:13px;fill:#fff;">building </text><text x="0px" y="13px" style="font-family:hcm;font-size:13px;fill:#fff;">standards</text></g><g transform="matrix(1,4.82947e-15,-4.82947e-15,1,237.4,160.179)"><text x="0px" y="0px" style="font-family:hcm;font-size:13px;fill:#fff;">appliance </text><text x="0.019px" y="13px" style="font-family:hcm;font-size:13px;fill:#fff;">standards</text></g></g><g><path d="M14.666,154.666l1.638,0" style="fill:none;stroke-width:1px;stroke:#979797;"/><path d="M14.666,104.944l1.638,0" style="fill:none;stroke-width:1px;stroke:#979797;"/><path d="M14.666,80.083l1.638,0" style="fill:none;stroke-width:1px;stroke:#979797;"/><path d="M14.666,55.222l1.638,0" style="fill:none;stroke-width:1px;stroke:#979797;"/><path d="M14.666,30.361l1.638,0" style="fill:none;stroke-width:1px;stroke:#979797;"/><path d="M14.666,129.805l1.638,0" style="fill:none;stroke-width:1px;stroke:#979797;"/><path d="M14.666,5.5l1.638,0" style="fill:none;stroke-width:1px;stroke:#979797;"/></g><g><path d="M27.796,179.859l0,1.262" style="fill:none;stroke-width:1px;stroke:#979797;"/><path d="M117.327,180.312l0,3.004" style="fill:none;stroke-width:1px;stroke:#979797;"/><path d="M72.562,179.859l0,1.262" style="fill:none;stroke-width:1px;stroke:#979797;"/><path d="M162.092,179.866l0,1.262" style="fill:none;stroke-width:1px;stroke:#979797;"/><path d="M229.24,180.312l0,3.004" style="fill:none;stroke-width:1px;stroke:#979797;"/><path d="M38.988,179.859l0,1.262" style="fill:none;stroke-width:1px;stroke:#979797;"/><path d="M128.518,179.866l0,1.262" style="fill:none;stroke-width:1px;stroke:#979797;"/><path d="M83.753,179.859l0,1.262" style="fill:none;stroke-width:1px;stroke:#979797;"/><path d="M173.283,180.312l0,3.004" style="fill:none;stroke-width:1px;stroke:#979797;"/><path d="M240.431,179.866l0,1.262" style="fill:none;stroke-width:1px;stroke:#979797;"/><path d="M50.179,179.859l0,1.262" style="fill:none;stroke-width:1px;stroke:#979797;"/><path d="M139.709,179.866l0,1.262" style="fill:none;stroke-width:1px;stroke:#979797;"/><path d="M206.857,179.866l0,1.262" style="fill:none;stroke-width:1px;stroke:#979797;"/><path d="M94.944,179.859l0,1.262" style="fill:none;stroke-width:1px;stroke:#979797;"/><path d="M184.474,179.866l0,1.262" style="fill:none;stroke-width:1px;stroke:#979797;"/><path d="M251.622,179.866l0,1.262" style="fill:none;stroke-width:1px;stroke:#979797;"/><path d="M61.37,180.295l0,3.004" style="fill:none;stroke-width:1px;stroke:#979797;"/><path d="M150.901,179.866l0,1.262" style="fill:none;stroke-width:1px;stroke:#979797;"/><path d="M218.048,179.866l0,1.262" style="fill:none;stroke-width:1px;stroke:#979797;"/><path d="M106.135,179.859l0,1.262" style="fill:none;stroke-width:1px;stroke:#979797;"/><path d="M16.605,179.866l0,1.262" style="fill:none;stroke-width:1px;stroke:#979797;"/><path d="M195.666,179.866l0,1.262" style="fill:none;stroke-width:1px;stroke:#979797;"/><path d="M262.813,179.866l0,1.262" style="fill:none;stroke-width:1px;stroke:#979797;"/><path d="M274.005,179.866l0,1.262" style="fill:none;stroke-width:1px;stroke:#979797;"/><path d="M285.196,180.312l0,3.004" style="fill:none;stroke-width:1px;stroke:#979797;"/><path d="M296.387,179.866l0,1.262" style="fill:none;stroke-width:1px;stroke:#979797;"/></g></g></svg>