<svg width="440" height="196" viewBox="0 0 440 196" version="1.1" xmlns="http://www.w3.org/2000/svg" xmlns:xlink="http://www.w3.org/1999/xlink" xml:space="preserve" style="fill-rule:evenodd;clip-rule:evenodd;stroke-linecap:round;stroke-linejoin:round;stroke-miterlimit:10;"><g><rect x="30.379" y="1.66" width="406.806" height="176.343" style="fill:#7cd3f5;"/><path d="M30.478,163.628c10.331,-0.481 68.379,-2.846 88.4,-4.164c20.021,-1.317 43.624,-3.67 60.258,-5.698c16.633,-2.028 27.312,-2.767 41.669,-5.138c14.356,-2.371 24.557,-5.981 33.399,-10.385c7.702,-3.837 20.738,-11.1 26.507,-16.421c5.769,-5.321 14.798,-14.398 20.001,-20.247c5.203,-5.849 12.438,-13.372 16.23,-19.319c3.792,-5.946 10.128,-15.327 12.841,-21.268c2.714,-5.94 8.547,-14.977 11.186,-21.438c2.639,-6.462 6.624,-14.057 9.988,-18.719c3.364,-4.663 9.775,-14.645 28.843,-15.529c19.06,-0.884 30.908,-1.221 57.148,-1.931c0.223,3.174 0,174.776 0,174.776l-406.454,0c0,0 0.152,-9.37 -0.016,-14.519Z" style="fill:#187797;"/><path d="M30.506,143.029l406.328,0.093M30.506,107.779l406.328,0.094M30.506,72.297l406.328,0.093M30.506,36.954l406.328,0.093" style="fill:none;stroke-width:1px;stroke:#000;stroke-opacity:0.0235294;"/><path d="M29.865,1.733l0,176.026" style="fill:none;stroke-width:1.01px;stroke-linecap:square;stroke-linejoin:miter;stroke-miterlimit:1.41421;stroke:#979797;"/><path d="M29.865,178.228l406.659,0" style="fill:none;stroke-width:1.45px;stroke-linecap:square;stroke-linejoin:miter;stroke-miterlimit:1.41421;stroke:#979797;"/><g><text x="5.555px" y="147.143px" style="font-family:hcm;font-size:11px;fill:#afafaf;">20%</text><text x="5.555px" y="111.831px" style="font-family:hcm;font-size:11px;fill:#afafaf;">40%</text><text x="5.555px" y="76.519px" style="font-family:hcm;font-size:11px;fill:#afafaf;">60%</text><text x="5.555px" y="41.207px" style="font-family:hcm;font-size:11px;fill:#afafaf;fill-opacity:0.8;">80%</text><text x="0.055px" y="8.896px" style="font-family:hcm;font-size:11px;fill:#afafaf;">100%</text></g><g><text x="18.953px" y="192.62px" style="font-family:hcm;font-size:11px;fill:#afafaf;">1850</text><text x="76.853px" y="192.62px" style="font-family:hcm;font-size:11px;fill:#afafaf;">1875</text><text x="135.205px" y="192.62px" style="font-family:hcm;font-size:11px;fill:#afafaf;">1900</text><text x="192.988px" y="192.62px" style="font-family:hcm;font-size:11px;fill:#afafaf;">1925</text><text x="251.783px" y="192.62px" style="font-family:hcm;font-size:11px;fill:#afafaf;">1950</text><text x="309.231px" y="192.62px" style="font-family:hcm;font-size:11px;fill:#afafaf;">1975</text><text x="367.452px" y="192.62px" style="font-family:hcm;font-size:11px;fill:#afafaf;">2000</text><text x="410.184px" y="192.62px" style="font-family:hcm;font-size:11px;fill:#afafaf;">(2025)</text></g><g><path d="M28.031,143.011l1.638,0" style="fill:none;stroke-width:1px;stroke-linecap:square;stroke-linejoin:miter;stroke-miterlimit:1.41421;stroke:#979797;"/><path d="M28.031,107.681l1.638,0" style="fill:none;stroke-width:1px;stroke-linecap:square;stroke-linejoin:miter;stroke-miterlimit:1.41421;stroke:#979797;"/><path d="M28.031,72.35l1.638,0" style="fill:none;stroke-width:1px;stroke-linecap:square;stroke-linejoin:miter;stroke-miterlimit:1.41421;stroke:#979797;"/><path d="M28.031,37.02l1.638,0" style="fill:none;stroke-width:1px;stroke-linecap:square;stroke-linejoin:miter;stroke-miterlimit:1.41421;stroke:#979797;"/></g><g><path d="M145.996,179.04l0,3.004" style="fill:none;stroke-width:1px;stroke-linecap:square;stroke-linejoin:miter;stroke-miterlimit:1.41421;stroke:#979797;"/><path d="M262.237,179.04l0,3.004" style="fill:none;stroke-width:1px;stroke-linecap:square;stroke-linejoin:miter;stroke-miterlimit:1.41421;stroke:#979797;"/><path d="M204.117,179.04l0,3.004" style="fill:none;stroke-width:1px;stroke-linecap:square;stroke-linejoin:miter;stroke-miterlimit:1.41421;stroke:#979797;"/><path d="M87.876,179.022l0,3.004" style="fill:none;stroke-width:1px;stroke-linecap:square;stroke-linejoin:miter;stroke-miterlimit:1.41421;stroke:#979797;"/><path d="M29.755,179.022l0,3.004" style="fill:none;stroke-width:1px;stroke-linecap:square;stroke-linejoin:miter;stroke-miterlimit:1.41421;stroke:#979797;"/><path d="M320.357,179.04l0,3.004" style="fill:none;stroke-width:1px;stroke-linecap:square;stroke-linejoin:miter;stroke-miterlimit:1.41421;stroke:#979797;"/><path d="M378.478,179.04l0,3.004" style="fill:none;stroke-width:1px;stroke-linecap:square;stroke-linejoin:miter;stroke-miterlimit:1.41421;stroke:#979797;"/><path d="M436.598,179.04l0,3.004" style="fill:none;stroke-width:1px;stroke-linecap:square;stroke-linejoin:miter;stroke-miterlimit:1.41421;stroke:#979797;"/></g><g><g transform="matrix(1,4.82947e-15,-4.82947e-15,1,120.819,55.8824)"><text x="1.479px" y="0px" style="font-family:hcm;font-size:13px;fill:#fff;">“natural” </text><text x="1.479px" y="13px" style="font-family:hcm;font-size:13px;fill:#fff;">land-dwelling </text><text x="1.479px" y="26px" style="font-family:hcm;font-size:13px;fill:#fff;">vertebrates</text></g><g transform="matrix(1,4.82947e-15,-4.82947e-15,1,350.3,115.378)"><text x="1.479px" y="0px" style="font-family:hcm;font-size:13px;fill:#fff;">humans, </text><text x="1.479px" y="13px" style="font-family:hcm;font-size:13px;fill:#fff;">livestock, </text><text x="1.479px" y="26px" style="font-family:hcm;font-size:13px;fill:#fff;">&amp; pets</text></g></g></g></svg>