<svg width="440" height="124" viewBox="0 0 440 124" version="1.1" xmlns="http://www.w3.org/2000/svg" xmlns:xlink="http://www.w3.org/1999/xlink" xml:space="preserve" style="fill-rule:evenodd;clip-rule:evenodd;stroke-linecap:round;stroke-linejoin:round;stroke-miterlimit:10;"><g><path d="M29.811,86.121l406.684,0.055M29.811,64.914l406.684,0.056M29.811,43.736l406.684,0.056M29.811,22.613l406.684,0.056M29.811,1.351l406.684,0.056" style="fill:none;stroke-width:1px;stroke:#000;stroke-opacity:0.0235294;"/><path d="M29.5,1.729l0,105.03" style="fill:none;stroke-width:1px;stroke-linecap:square;stroke-linejoin:miter;stroke-miterlimit:1.41421;stroke:#979797;"/><path d="M29.865,107.5l406.659,0" style="fill:none;stroke-width:1px;stroke-linecap:square;stroke-linejoin:miter;stroke-miterlimit:1.41421;stroke:#979797;"/><g><text x="5.555px" y="89.432px" style="font-family:hcm;font-size:11px;fill:#afafaf;">20%</text><text x="5.555px" y="68.339px" style="font-family:hcm;font-size:11px;fill:#afafaf;">40%</text><text x="5.555px" y="47.246px" style="font-family:hcm;font-size:11px;fill:#afafaf;">60%</text><text x="5.555px" y="27.153px" style="font-family:hcm;font-size:11px;fill:#afafaf;fill-opacity:0.8;">80%</text><text x="0.055px" y="8.729px" style="font-family:hcm;font-size:11px;fill:#afafaf;">100%</text></g><g><text x="27.801px" y="121.62px" style="font-family:hcm;font-size:11px;fill:#afafaf;">1970</text><text x="72.09px" y="121.62px" style="font-family:hcm;font-size:11px;fill:#afafaf;">1975</text><text x="116.468px" y="121.62px" style="font-family:hcm;font-size:11px;fill:#afafaf;">1980</text><text x="160.369px" y="121.62px" style="font-family:hcm;font-size:11px;fill:#afafaf;">1985</text><text x="204.505px" y="121.62px" style="font-family:hcm;font-size:11px;fill:#afafaf;">1990</text><text x="248.912px" y="121.62px" style="font-family:hcm;font-size:11px;fill:#afafaf;">1995</text><text x="292.809px" y="121.62px" style="font-family:hcm;font-size:11px;fill:#afafaf;">2000</text><text x="337.113px" y="121.62px" style="font-family:hcm;font-size:11px;fill:#afafaf;">2005</text><text x="381.326px" y="121.62px" style="font-family:hcm;font-size:11px;fill:#afafaf;">2010</text><text x="417.453px" y="121.62px" style="font-family:hcm;font-size:11px;fill:#afafaf;">2015</text></g><g><path d="M27.6,64.824l1.638,0" style="fill:none;stroke-width:1px;stroke-linecap:square;stroke-linejoin:miter;stroke-miterlimit:1.41421;stroke:#979797;"/><path d="M27.6,43.666l1.638,0" style="fill:none;stroke-width:1px;stroke-linecap:square;stroke-linejoin:miter;stroke-miterlimit:1.41421;stroke:#979797;"/><path d="M27.6,1.5l1.638,0" style="fill:none;stroke-width:1px;stroke-linecap:square;stroke-linejoin:miter;stroke-miterlimit:1.41421;stroke:#979797;"/><path d="M27.6,22.508l1.638,0" style="fill:none;stroke-width:1px;stroke-linecap:square;stroke-linejoin:miter;stroke-miterlimit:1.41421;stroke:#979797;"/><path d="M27.6,85.982l1.638,0" style="fill:none;stroke-width:1px;stroke-linecap:square;stroke-linejoin:miter;stroke-miterlimit:1.41421;stroke:#979797;"/></g><g><path d="M127.044,108.04l0,3.004" style="fill:none;stroke-width:1px;stroke-linecap:square;stroke-linejoin:miter;stroke-miterlimit:1.41421;stroke:#979797;"/><path d="M215.488,108.04l0,3.004" style="fill:none;stroke-width:1px;stroke-linecap:square;stroke-linejoin:miter;stroke-miterlimit:1.41421;stroke:#979797;"/><path d="M171.266,108.04l0,3.004" style="fill:none;stroke-width:1px;stroke-linecap:square;stroke-linejoin:miter;stroke-miterlimit:1.41421;stroke:#979797;"/><path d="M82.822,108.022l0,3.004" style="fill:none;stroke-width:1px;stroke-linecap:square;stroke-linejoin:miter;stroke-miterlimit:1.41421;stroke:#979797;"/><path d="M29.5,108.022l0,1.282" style="fill:none;stroke-width:1px;stroke-linecap:square;stroke-linejoin:miter;stroke-miterlimit:1.41421;stroke:#979797;"/><path d="M47.444,108.022l0,1.282" style="fill:none;stroke-width:1px;stroke-linecap:square;stroke-linejoin:miter;stroke-miterlimit:1.41421;stroke:#979797;"/><path d="M56.288,108.022l0,1.282" style="fill:none;stroke-width:1px;stroke-linecap:square;stroke-linejoin:miter;stroke-miterlimit:1.41421;stroke:#979797;"/><path d="M65.133,108.022l0,1.282" style="fill:none;stroke-width:1px;stroke-linecap:square;stroke-linejoin:miter;stroke-miterlimit:1.41421;stroke:#979797;"/><path d="M73.977,108.022l0,1.282" style="fill:none;stroke-width:1px;stroke-linecap:square;stroke-linejoin:miter;stroke-miterlimit:1.41421;stroke:#979797;"/><path d="M91.666,108.022l0,1.282" style="fill:none;stroke-width:1px;stroke-linecap:square;stroke-linejoin:miter;stroke-miterlimit:1.41421;stroke:#979797;"/><path d="M100.51,108.022l0,1.282" style="fill:none;stroke-width:1px;stroke-linecap:square;stroke-linejoin:miter;stroke-miterlimit:1.41421;stroke:#979797;"/><path d="M109.355,108.022l0,1.282" style="fill:none;stroke-width:1px;stroke-linecap:square;stroke-linejoin:miter;stroke-miterlimit:1.41421;stroke:#979797;"/><path d="M118.199,108.022l0,1.282" style="fill:none;stroke-width:1px;stroke-linecap:square;stroke-linejoin:miter;stroke-miterlimit:1.41421;stroke:#979797;"/><path d="M135.888,108.022l0,1.282" style="fill:none;stroke-width:1px;stroke-linecap:square;stroke-linejoin:miter;stroke-miterlimit:1.41421;stroke:#979797;"/><path d="M144.733,108.022l0,1.282" style="fill:none;stroke-width:1px;stroke-linecap:square;stroke-linejoin:miter;stroke-miterlimit:1.41421;stroke:#979797;"/><path d="M153.577,108.022l0,1.282" style="fill:none;stroke-width:1px;stroke-linecap:square;stroke-linejoin:miter;stroke-miterlimit:1.41421;stroke:#979797;"/><path d="M162.421,108.022l0,1.282" style="fill:none;stroke-width:1px;stroke-linecap:square;stroke-linejoin:miter;stroke-miterlimit:1.41421;stroke:#979797;"/><path d="M180.11,108.022l0,1.282" style="fill:none;stroke-width:1px;stroke-linecap:square;stroke-linejoin:miter;stroke-miterlimit:1.41421;stroke:#979797;"/><path d="M188.955,108.022l0,1.282" style="fill:none;stroke-width:1px;stroke-linecap:square;stroke-linejoin:miter;stroke-miterlimit:1.41421;stroke:#979797;"/><path d="M197.799,108.022l0,1.282" style="fill:none;stroke-width:1px;stroke-linecap:square;stroke-linejoin:miter;stroke-miterlimit:1.41421;stroke:#979797;"/><path d="M206.643,108.022l0,1.282" style="fill:none;stroke-width:1px;stroke-linecap:square;stroke-linejoin:miter;stroke-miterlimit:1.41421;stroke:#979797;"/><path d="M224.332,108.022l0,1.282" style="fill:none;stroke-width:1px;stroke-linecap:square;stroke-linejoin:miter;stroke-miterlimit:1.41421;stroke:#979797;"/><path d="M233.177,108.022l0,1.282" style="fill:none;stroke-width:1px;stroke-linecap:square;stroke-linejoin:miter;stroke-miterlimit:1.41421;stroke:#979797;"/><path d="M242.021,108.022l0,1.282" style="fill:none;stroke-width:1px;stroke-linecap:square;stroke-linejoin:miter;stroke-miterlimit:1.41421;stroke:#979797;"/><path d="M250.866,108.022l0,1.282" style="fill:none;stroke-width:1px;stroke-linecap:square;stroke-linejoin:miter;stroke-miterlimit:1.41421;stroke:#979797;"/><path d="M268.554,108.022l0,1.282" style="fill:none;stroke-width:1px;stroke-linecap:square;stroke-linejoin:miter;stroke-miterlimit:1.41421;stroke:#979797;"/><path d="M277.399,108.022l0,1.282" style="fill:none;stroke-width:1px;stroke-linecap:square;stroke-linejoin:miter;stroke-miterlimit:1.41421;stroke:#979797;"/><path d="M286.243,108.022l0,1.282" style="fill:none;stroke-width:1px;stroke-linecap:square;stroke-linejoin:miter;stroke-miterlimit:1.41421;stroke:#979797;"/><path d="M295.088,108.022l0,1.282" style="fill:none;stroke-width:1px;stroke-linecap:square;stroke-linejoin:miter;stroke-miterlimit:1.41421;stroke:#979797;"/><path d="M312.777,108.022l0,1.282" style="fill:none;stroke-width:1px;stroke-linecap:square;stroke-linejoin:miter;stroke-miterlimit:1.41421;stroke:#979797;"/><path d="M321.621,108.022l0,1.282" style="fill:none;stroke-width:1px;stroke-linecap:square;stroke-linejoin:miter;stroke-miterlimit:1.41421;stroke:#979797;"/><path d="M330.465,108.022l0,1.282" style="fill:none;stroke-width:1px;stroke-linecap:square;stroke-linejoin:miter;stroke-miterlimit:1.41421;stroke:#979797;"/><path d="M339.31,108.022l0,1.282" style="fill:none;stroke-width:1px;stroke-linecap:square;stroke-linejoin:miter;stroke-miterlimit:1.41421;stroke:#979797;"/><path d="M356.999,108.022l0,1.282" style="fill:none;stroke-width:1px;stroke-linecap:square;stroke-linejoin:miter;stroke-miterlimit:1.41421;stroke:#979797;"/><path d="M401.221,108.022l0,1.282" style="fill:none;stroke-width:1px;stroke-linecap:square;stroke-linejoin:miter;stroke-miterlimit:1.41421;stroke:#979797;"/><path d="M365.843,108.022l0,1.282" style="fill:none;stroke-width:1px;stroke-linecap:square;stroke-linejoin:miter;stroke-miterlimit:1.41421;stroke:#979797;"/><path d="M410.065,108.022l0,1.282" style="fill:none;stroke-width:1px;stroke-linecap:square;stroke-linejoin:miter;stroke-miterlimit:1.41421;stroke:#979797;"/><path d="M374.687,108.022l0,1.282" style="fill:none;stroke-width:1px;stroke-linecap:square;stroke-linejoin:miter;stroke-miterlimit:1.41421;stroke:#979797;"/><path d="M418.91,108.022l0,1.282" style="fill:none;stroke-width:1px;stroke-linecap:square;stroke-linejoin:miter;stroke-miterlimit:1.41421;stroke:#979797;"/><path d="M383.532,108.022l0,1.282" style="fill:none;stroke-width:1px;stroke-linecap:square;stroke-linejoin:miter;stroke-miterlimit:1.41421;stroke:#979797;"/><path d="M427.754,108.022l0,1.282" style="fill:none;stroke-width:1px;stroke-linecap:square;stroke-linejoin:miter;stroke-miterlimit:1.41421;stroke:#979797;"/><path d="M38.6,108.393l0,3.004" style="fill:none;stroke-width:1px;stroke-linecap:square;stroke-linejoin:miter;stroke-miterlimit:1.41421;stroke:#979797;"/><path d="M259.71,108.04l0,3.004" style="fill:none;stroke-width:1px;stroke-linecap:square;stroke-linejoin:miter;stroke-miterlimit:1.41421;stroke:#979797;"/><path d="M303.932,108.04l0,3.004" style="fill:none;stroke-width:1px;stroke-linecap:square;stroke-linejoin:miter;stroke-miterlimit:1.41421;stroke:#979797;"/><path d="M348.154,108.04l0,3.004" style="fill:none;stroke-width:1px;stroke-linecap:square;stroke-linejoin:miter;stroke-miterlimit:1.41421;stroke:#979797;"/><path d="M392.376,108.04l0,3.004" style="fill:none;stroke-width:1px;stroke-linecap:square;stroke-linejoin:miter;stroke-miterlimit:1.41421;stroke:#979797;"/><path d="M436.598,108.04l0,3.004" style="fill:none;stroke-width:1px;stroke-linecap:square;stroke-linejoin:miter;stroke-miterlimit:1.41421;stroke:#979797;"/></g><g><path d="M36.344,107.284l90.661,0l88.558,-0.94l9.147,-0.636c0,0 6.589,-0.492 8.61,-0.741c2.022,-0.249 6.956,-0.149 9.111,-0.466c2.155,-0.318 6.689,-2.325 8.367,-2.859c1.677,-0.535 7.805,-3.532 9.049,-4.665c1.243,-1.133 7.179,-6.598 8.418,-7.377c1.239,-0.778 8.117,-4.522 9.324,-5.512c1.207,-0.99 7.284,-8.091 8.915,-9.118c1.631,-1.027 7.694,-5.015 9.219,-6.078c1.524,-1.064 7.318,-6.524 8.667,-7.631c1.35,-1.106 7.371,-4.811 8.716,-6.33c1.344,-1.52 7.122,-9.436 8.721,-10.003c1.599,-0.566 7.313,-2.896 8.593,-3.145c1.281,-0.248 6.948,-2.403 8.722,-3.182c1.773,-0.778 6.672,-3.315 8.98,-3.744c2.308,-0.428 7.625,-0.857 9.049,-0.857c1.423,0 7.354,-5.866 8.603,-6.295c1.248,-0.428 7.456,0.842 8.98,1.128c1.525,0.286 7.628,3.061 8.941,3.061c1.313,0 6.742,-0.635 8.62,-0.635c1.879,0 7.801,2.547 9.076,2.049c1.276,-0.497 7.441,-9.293 8.791,-10.108c1.349,-0.815 6.708,-4.596 8.551,-5.167c1.842,-0.572 9.017,-3.404 9.017,-3.404" style="fill:none;stroke-width:3px;stroke-miterlimit:1.41421;stroke:#7cd3f5;"/></g><g><g transform="matrix(1,0,0,1,44.077,31.2131)"><text x="0px" y="0px" style="font-family:hcm;font-size:11px;fill:#7a7a7a;">first ARPANET </text><text x="0px" y="11px" style="font-family:hcm;font-size:11px;fill:#7a7a7a;">message delivered</text></g><g transform="matrix(1,0,0,1,57.275,63.6387)"><text x="0.897px" y="0px" style="font-family:hcm;font-size:11px;fill:#7a7a7a;">TCP/IP </text><text x="0px" y="11px" style="font-family:hcm;font-size:11px;fill:#7a7a7a;">created</text></g><g transform="matrix(1,0,0,1,151.185,63.6387)"><text x="6.096px" y="0px" style="font-family:hcm;font-size:11px;fill:#7a7a7a;">DNS </text><text x="0px" y="11px" style="font-family:hcm;font-size:11px;fill:#7a7a7a;">created</text></g><g transform="matrix(1,0,0,1,206.726,63.6387)"><text x="2.135px" y="0px" style="font-family:hcm;font-size:11px;fill:#7a7a7a;">WWW </text><text x="0px" y="11px" style="font-family:hcm;font-size:11px;fill:#7a7a7a;">created</text></g><path d="M41.953,33.109l-5.453,0l0,70.636" style="fill:none;stroke-width:1px;stroke-linecap:butt;stroke-miterlimit:1.41421;stroke:#919191;"/><path d="M71.5,78.064l0,25.996" style="fill:none;stroke-width:1px;stroke-linecap:butt;stroke-miterlimit:1.41421;stroke:#919191;"/><path d="M166.5,78.064l0,25.996" style="fill:none;stroke-width:1px;stroke-linecap:butt;stroke-miterlimit:1.41421;stroke:#919191;"/><path d="M221.5,78.064l0,23.699" style="fill:none;stroke-width:1px;stroke-linecap:butt;stroke-miterlimit:1.41421;stroke:#919191;"/></g></g></svg>