<svg width="440" height="220" viewBox="0 0 440 220" version="1.1" xmlns="http://www.w3.org/2000/svg" xmlns:xlink="http://www.w3.org/1999/xlink" xml:space="preserve" style="fill-rule:evenodd;clip-rule:evenodd;stroke-linecap:round;stroke-linejoin:round;stroke-miterlimit:10;"><g><g><path d="M30.41,170.029l332.638,0.093M30.41,134.779l332.638,0.094M30.41,99.297l332.638,0.093M30.41,63.954l332.638,0.093" style="fill:none;stroke-width:1px;stroke:#000;stroke-opacity:0.0588235;"/><path d="M29.976,117.177l332.521,0" style="fill:none;stroke-width:1px;stroke-miterlimit:1.41421;stroke:#000;stroke-opacity:0.0588235;"/><path d="M29.976,28.81l332.521,0" style="fill:none;stroke-width:1px;stroke-miterlimit:1.41421;stroke:#000;stroke-opacity:0.0588235;"/><path d="M243.85,205.394l0,-176.582" style="fill:none;stroke-width:1px;stroke-miterlimit:1.41421;stroke:#ffdf13;stroke-opacity:0.415686;"/></g><path d="M29.5,28.733l0,176.026" style="fill:none;stroke-width:1px;stroke-linecap:square;stroke-linejoin:miter;stroke-miterlimit:1.41421;stroke:#979797;"/><path d="M29.515,205.5l332.969,0" style="fill:none;stroke-width:1px;stroke-linecap:square;stroke-linejoin:miter;stroke-miterlimit:1.41421;stroke:#979797;"/><g><path d="M29.422,148.696c5.95,-0.25 22.342,-1.436 33.701,-2.112c11.359,-0.677 35.369,-3.587 45.896,-4.82c5.953,-0.697 14.37,-1.651 21.798,-2.518c5.709,-0.666 10.833,-1.281 13.806,-1.688" style="fill:none;stroke-width:2px;stroke-miterlimit:1.41421;stroke:#1f1f1f;"/><path d="M145.643,137.188c7.142,-1.177 40.271,-8.905 53.299,-12.806c13.027,-3.9 37.602,-14.603 47.489,-19.163c9.887,-4.559 33.423,-18.15 44.071,-24.331c10.648,-6.18 38.122,-24.343 46.284,-29.421c8.163,-5.077 24.768,-17.188 24.768,-17.188" style="fill:none;stroke-width:2px;stroke-miterlimit:1.41421;stroke:#f71616;"/><path d="M145.407,137.532c5.472,-0.806 53.889,-12.039 63.184,-14.642c9.296,-2.602 44.469,-13.121 57.791,-17.986c13.321,-4.865 30.448,-11.481 43.411,-18.171c12.963,-6.689 21.404,-9.977 34.278,-18.9c12.873,-8.923 18.451,-12.75 18.451,-12.75" style="fill:none;stroke-width:2px;stroke-miterlimit:1.41421;stroke:#fb8c05;"/><path d="M144.876,137.369c8.493,-1.427 71.542,-16.948 84.238,-20.47c12.696,-3.521 49.686,-14.149 63.087,-17.865c13.401,-3.716 27.531,-8.961 39.784,-11.741c12.252,-2.781 23.63,-6.051 30.251,-7.237" style="fill:none;stroke-width:2px;stroke-miterlimit:1.41421;stroke:#ffe629;"/><path d="M144.979,137.537c9.838,-1.548 47.069,-8.168 62.884,-11.94c15.816,-3.771 38.311,-9.266 55.486,-12.288c17.174,-3.021 33.764,-6.182 43.848,-7.108c10.083,-0.926 18.707,-2.168 33.509,-2.659c14.802,-0.492 21.822,-0.492 21.822,-0.492" style="fill:none;stroke-width:2px;stroke-miterlimit:1.41421;stroke:#29b4ff;"/><path d="M144.871,137.549c15.273,-1.491 30.989,-4.521 42.334,-6.125c11.344,-1.603 36.164,-6.237 52.423,-9.137c16.26,-2.901 42.213,-8.439 53.016,-10.478c10.802,-2.039 38.292,-7.841 47.603,-9.944c9.311,-2.104 22.542,-5.513 22.542,-5.513" style="fill:none;stroke-width:2px;stroke-miterlimit:1.41421;stroke:#0fff1b;"/><path d="M144.74,137.536c20.01,-2.668 49.478,-7.923 63.955,-10.638c14.478,-2.715 44.221,-9.646 55.855,-11.443c11.635,-1.797 36.6,-4.022 51.367,-5.077c14.767,-1.056 39.611,-1.733 46.266,-1.427" style="fill:none;stroke-width:2px;stroke-miterlimit:1.41421;stroke:#c61efe;"/></g><g><text x="9.213px" y="174.143px" style="font-family:hcm;font-size:11px;fill:#afafaf;">200</text><text x="9.213px" y="138.831px" style="font-family:hcm;font-size:11px;fill:#afafaf;">400</text><text x="9.213px" y="103.519px" style="font-family:hcm;font-size:11px;fill:#afafaf;">600</text><text x="9.213px" y="121.024px" style="font-family:hcm;font-size:11px;fill:#afafaf;">500</text><text x="9.213px" y="68.207px" style="font-family:hcm;font-size:11px;fill:#afafaf;fill-opacity:0.8;">800</text><text x="3.713px" y="32.896px" style="font-family:hcm;font-size:11px;fill:#afafaf;">1000</text></g><g><text x="347.103px" y="21.885px" style="font-family:hcm;font-size:11px;fill:#69aac8;">scenario</text><text x="388.698px" y="9.542px" style="font-family:hcm;font-size:11px;fill:#69aac8;">ppm in...</text><text x="388.392px" y="21.885px" style="font-family:hcm;font-size:11px;fill:#69aac8;">2050</text><text x="414.599px" y="21.885px" style="font-family:hcm;font-size:11px;fill:#69aac8;">2100</text><path d="M347.729,24.474l36.439,0" style="fill:none;stroke-width:0.5px;stroke-miterlimit:1.41421;stroke:#69aac8;"/><path d="M389.173,24.474l20.574,0" style="fill:none;stroke-width:0.5px;stroke-miterlimit:1.41421;stroke:#69aac8;"/><path d="M414.574,24.474l20.574,0" style="fill:none;stroke-width:0.5px;stroke-miterlimit:1.41421;stroke:#69aac8;"/></g><g><text x="365.931px" y="38.379px" style="font-family:hcm;font-size:11px;fill:#afafaf;">A1FI</text><text x="365.931px" y="57.947px" style="font-family:hcm;font-size:11px;fill:#afafaf;">A2</text><text x="365.931px" y="80.928px" style="font-family:hcm;font-size:11px;fill:#afafaf;">A1B</text><text x="365.931px" y="95.393px" style="font-family:hcm;font-size:11px;fill:#afafaf;">B2</text><text x="365.931px" y="107.055px" style="font-family:hcm;font-size:11px;fill:#afafaf;">A1T</text><text x="365.931px" y="118.917px" style="font-family:hcm;font-size:11px;fill:#afafaf;">A1T</text><text x="392.692px" y="38.379px" style="font-family:hcm;font-size:11px;fill:#676767;">567</text><text x="392.692px" y="57.947px" style="font-family:hcm;font-size:11px;fill:#676767;">532</text><text x="392.692px" y="80.928px" style="font-family:hcm;font-size:11px;fill:#676767;">532</text><text x="392.692px" y="95.393px" style="font-family:hcm;font-size:11px;fill:#676767;">478</text><text x="392.692px" y="107.055px" style="font-family:hcm;font-size:11px;fill:#676767;">501</text><text x="392.692px" y="118.917px" style="font-family:hcm;font-size:11px;fill:#676767;">488</text><text x="419.462px" y="38.379px" style="font-family:hcm;font-size:11px;fill:#676767;">970</text><text x="419.462px" y="57.947px" style="font-family:hcm;font-size:11px;fill:#676767;">856</text><text x="419.462px" y="80.928px" style="font-family:hcm;font-size:11px;fill:#676767;">917</text><text x="419.462px" y="95.393px" style="font-family:hcm;font-size:11px;fill:#676767;">621</text><text x="419.462px" y="107.055px" style="font-family:hcm;font-size:11px;fill:#676767;">582</text><text x="419.462px" y="118.917px" style="font-family:hcm;font-size:11px;fill:#676767;">549</text></g><g><g transform="matrix(0.993996,-0.109416,0.109416,0.993996,-16.7852,8.35724)"><text x="53.055px" y="157.125px" style="font-family:hcm;font-size:11px;fill:#afafaf;">already happened</text></g><g transform="matrix(0.986669,-0.162737,0.162737,0.986669,-21.3302,29.2265)"><text x="153.028px" y="144.811px" style="font-family:hcm;font-size:11px;fill:#afafaf;">projected scenarios</text></g></g><g><text x="18.953px" y="219.62px" style="font-family:hcm;font-size:11px;fill:#afafaf;">1960</text><text x="113.995px" y="219.62px" style="font-family:hcm;font-size:11px;fill:#afafaf;">2000</text><text x="233.221px" y="219.62px" style="font-family:hcm;font-size:11px;fill:#afafaf;">2050</text><text x="350.681px" y="219.62px" style="font-family:hcm;font-size:11px;fill:#afafaf;">2100</text></g><g><path d="M28.031,170.011l1.4,0" style="fill:none;stroke-width:0.93px;stroke-linecap:square;stroke-linejoin:miter;stroke-miterlimit:1.41421;stroke:#979797;"/><path d="M28.031,134.681l1.4,0" style="fill:none;stroke-width:0.93px;stroke-linecap:square;stroke-linejoin:miter;stroke-miterlimit:1.41421;stroke:#979797;"/><path d="M28.031,117.015l1.4,0" style="fill:none;stroke-width:0.93px;stroke-linecap:square;stroke-linejoin:miter;stroke-miterlimit:1.41421;stroke:#979797;"/><path d="M28.031,99.35l1.4,0" style="fill:none;stroke-width:0.93px;stroke-linecap:square;stroke-linejoin:miter;stroke-miterlimit:1.41421;stroke:#979797;"/><path d="M28.031,64.02l1.4,0" style="fill:none;stroke-width:0.93px;stroke-linecap:square;stroke-linejoin:miter;stroke-miterlimit:1.41421;stroke:#979797;"/><path d="M28.031,28.5l1.4,0" style="fill:none;stroke-width:0.93px;stroke-linecap:square;stroke-linejoin:miter;stroke-miterlimit:1.41421;stroke:#979797;"/></g><g><path d="M243.785,206.04l0,3.004" style="fill:none;stroke-width:1px;stroke-linecap:square;stroke-linejoin:miter;stroke-miterlimit:1.41421;stroke:#979797;"/><path d="M362.5,206.04l0,3.004" style="fill:none;stroke-width:1px;stroke-linecap:square;stroke-linejoin:miter;stroke-miterlimit:1.41421;stroke:#979797;"/><path d="M125.27,206.022l0,3.004" style="fill:none;stroke-width:1px;stroke-linecap:square;stroke-linejoin:miter;stroke-miterlimit:1.41421;stroke:#979797;"/><path d="M29.5,206.022l0,1.404" style="fill:none;stroke-width:1px;stroke-linecap:square;stroke-linejoin:miter;stroke-miterlimit:1.41421;stroke:#979797;"/><path d="M148.973,206.022l0,1.404" style="fill:none;stroke-width:0.78px;stroke-linecap:square;stroke-linejoin:miter;stroke-miterlimit:1.41421;stroke:#979797;"/><path d="M267.488,206.022l0,1.404" style="fill:none;stroke-width:0.78px;stroke-linecap:square;stroke-linejoin:miter;stroke-miterlimit:1.41421;stroke:#979797;"/><path d="M54.161,206.022l0,1.404" style="fill:none;stroke-width:0.78px;stroke-linecap:square;stroke-linejoin:miter;stroke-miterlimit:1.41421;stroke:#979797;"/><path d="M172.676,206.022l0,1.404" style="fill:none;stroke-width:0.78px;stroke-linecap:square;stroke-linejoin:miter;stroke-miterlimit:1.41421;stroke:#979797;"/><path d="M291.191,206.022l0,1.404" style="fill:none;stroke-width:0.78px;stroke-linecap:square;stroke-linejoin:miter;stroke-miterlimit:1.41421;stroke:#979797;"/><path d="M77.864,206.022l0,1.404" style="fill:none;stroke-width:0.78px;stroke-linecap:square;stroke-linejoin:miter;stroke-miterlimit:1.41421;stroke:#979797;"/><path d="M196.379,206.022l0,1.404" style="fill:none;stroke-width:0.78px;stroke-linecap:square;stroke-linejoin:miter;stroke-miterlimit:1.41421;stroke:#979797;"/><path d="M314.894,206.022l0,1.404" style="fill:none;stroke-width:0.78px;stroke-linecap:square;stroke-linejoin:miter;stroke-miterlimit:1.41421;stroke:#979797;"/><path d="M101.567,206.022l0,1.404" style="fill:none;stroke-width:0.78px;stroke-linecap:square;stroke-linejoin:miter;stroke-miterlimit:1.41421;stroke:#979797;"/><path d="M220.082,206.022l0,1.404" style="fill:none;stroke-width:0.78px;stroke-linecap:square;stroke-linejoin:miter;stroke-miterlimit:1.41421;stroke:#979797;"/><path d="M338.597,206.022l0,1.404" style="fill:none;stroke-width:0.78px;stroke-linecap:square;stroke-linejoin:miter;stroke-miterlimit:1.41421;stroke:#979797;"/></g></g></svg>